<svg width="1054" height="639" viewBox="0 0 1054 639" fill="none" xmlns="http://www.w3.org/2000/svg">
<g clip-path="url(#clip0_582_15370)">
<g opacity="0.17">
<path d="M541.213 566.642C824.417 566.642 1054 559.548 1054 550.796C1054 542.045 824.417 534.95 541.213 534.95C258.008 534.95 28.4248 542.045 28.4248 550.796C28.4248 559.548 258.008 566.642 541.213 566.642Z" fill="#C9C2CC"/>
</g>
<path d="M877.538 551.942H694.781C687.532 551.942 681.427 546.596 680.664 539.341L637.741 172.207C636.787 163.616 643.464 156.17 651.858 156.17H920.461C929.046 156.17 935.723 163.616 934.578 172.207L891.655 539.341C890.892 546.405 884.788 551.942 877.538 551.942Z" fill="#DDDAE0"/>
<g opacity="0.76">
<path d="M914.166 197.217L893.372 375.343L877.156 513.567C876.393 519.868 871.243 524.45 864.947 524.45H707.372C701.076 524.45 695.926 519.677 695.163 513.567L678.947 375.343L658.153 197.217C657.39 189.963 663.113 183.471 670.363 183.471H901.956C909.396 183.471 915.12 189.963 914.166 197.217Z" fill="#EAEAEA"/>
</g>
<path d="M893.372 375.534L877.156 513.758C876.393 520.059 871.243 524.641 864.947 524.641H707.372C701.076 524.641 695.926 519.868 695.163 513.758L678.947 375.534H893.372Z" fill="white"/>
<path d="M915.12 164.571H862.086C861.705 164.571 861.323 164.189 861.323 163.807C861.323 163.425 861.705 163.043 862.086 163.043H915.12C915.502 163.043 915.883 163.425 915.883 163.807C915.883 164.189 915.502 164.571 915.12 164.571Z" fill="white"/>
<g opacity="0.17">
<path d="M463.951 639.191C579.951 639.191 673.988 634.148 673.988 627.927C673.988 621.706 579.951 616.663 463.951 616.663C347.951 616.663 253.914 621.706 253.914 627.927C253.914 634.148 347.951 639.191 463.951 639.191Z" fill="#C9C2CC"/>
</g>
<path d="M582.609 561.297H401.76C269.939 561.297 162.917 454.192 162.917 322.268H821.452C821.452 454.192 714.431 561.297 582.609 561.297Z" fill="#DDDAE0"/>
<path d="M821.452 320.359C821.452 323.223 818.209 325.896 812.105 328.569C809.815 329.523 807.145 330.478 804.092 331.432C792.837 334.869 776.24 338.114 755.255 340.978C744.572 342.506 732.745 343.842 719.772 345.178C719.582 345.178 719.391 345.178 719.2 345.178C718.246 345.178 717.292 345.369 716.339 345.369C714.049 345.56 711.76 345.751 709.471 345.942C706.419 346.133 703.175 346.515 699.932 346.706C690.585 347.469 680.665 348.233 670.554 348.997C668.646 349.188 666.929 349.188 665.022 349.379C663.686 349.379 662.16 349.569 660.825 349.569C655.483 349.951 649.951 350.142 644.419 350.524C642.32 350.715 640.222 350.715 638.123 350.906C636.979 350.906 635.643 351.097 634.308 351.097C633.163 351.097 632.019 351.288 630.683 351.288C627.44 351.479 624.197 351.67 620.954 351.67C601.305 352.624 580.511 353.197 559.145 353.77C557.046 353.77 554.948 353.77 552.849 353.961C546.554 354.151 540.259 354.151 533.963 354.342C531.483 354.342 529.003 354.342 526.714 354.342C515.268 354.533 503.631 354.533 491.803 354.533C485.126 354.533 478.64 354.533 472.154 354.533C467.957 354.533 463.951 354.533 459.945 354.533C454.412 354.533 448.88 354.342 443.348 354.342C438.388 354.342 433.428 354.151 428.659 354.151C422.554 353.961 416.449 353.961 410.345 353.77C402.905 353.579 395.656 353.388 388.406 353.197C384.209 353.006 380.012 352.815 376.006 352.815C375.434 352.815 374.862 352.815 374.48 352.815C364.751 352.433 355.403 352.051 346.246 351.479C339.951 351.097 333.655 350.906 327.551 350.524C325.262 350.333 322.782 350.142 320.492 350.142C318.203 349.951 316.105 349.951 314.006 349.76C303.705 349.188 293.976 348.424 284.437 347.469C282.72 347.278 281.003 347.088 279.286 347.088C278.523 347.088 277.76 346.897 276.997 346.897C272.8 346.515 268.603 346.133 264.597 345.751C257.157 344.987 249.908 344.224 243.04 343.46C241.132 343.269 239.415 343.078 237.699 342.887C237.317 342.887 237.126 342.887 236.745 342.696C236.363 342.696 235.791 342.506 235.409 342.506C224.345 341.169 214.425 339.642 205.649 337.924C201.071 337.16 197.065 336.205 193.059 335.442C173.219 331.05 162.345 326.087 162.345 320.932C162.345 316.732 169.403 312.722 182.566 309.095C184.855 308.522 187.335 307.759 190.197 307.186C192.677 306.613 195.348 306.04 198.209 305.468C206.412 303.749 215.951 302.222 226.634 300.695C227.779 300.504 228.732 300.313 229.877 300.313H230.068C231.022 300.122 231.975 300.122 232.929 299.931C233.692 299.74 234.646 299.74 235.409 299.549C236.554 299.358 237.699 299.167 238.843 299.167C240.56 298.976 242.277 298.785 243.994 298.595C244.757 298.404 245.711 298.404 246.474 298.213C248.572 298.022 250.671 297.64 252.769 297.449C256.585 297.067 260.591 296.685 264.597 296.304C265.169 296.304 265.742 296.113 266.314 296.113C267.077 296.113 268.031 295.922 268.794 295.922C273.754 295.349 278.905 294.967 284.246 294.585C286.345 294.394 288.634 294.203 290.923 294.013C293.403 293.822 296.074 293.631 298.745 293.44C306.185 292.867 313.816 292.294 321.637 291.912C322.209 291.912 322.972 291.912 323.735 291.722C324.689 291.722 325.834 291.531 326.788 291.531C329.84 291.34 333.083 291.149 336.326 290.958C347.009 290.385 358.074 289.812 369.329 289.431C373.908 289.24 378.677 289.049 383.446 288.858C387.834 288.667 392.222 288.476 396.609 288.476C398.517 288.476 400.425 288.285 402.142 288.285C403.477 288.285 404.812 288.285 406.339 288.094C409.2 288.094 412.062 287.903 415.114 287.903C417.594 287.903 419.883 287.712 422.363 287.712C424.271 287.712 426.369 287.712 428.277 287.521C429.04 287.521 429.803 287.521 430.757 287.521C450.597 287.14 471.2 286.949 492.185 286.949C507.828 286.949 523.28 287.14 538.542 287.33C542.739 287.33 546.935 287.521 551.132 287.521C553.803 287.521 556.665 287.521 559.335 287.712C560.289 287.712 561.243 287.712 562.197 287.712C566.585 287.712 570.782 287.903 575.169 288.094C575.932 288.094 576.695 288.094 577.459 288.094C591.003 288.476 604.166 288.858 616.948 289.431C620 289.621 622.862 289.621 625.723 289.812C626.868 289.812 628.203 290.003 629.348 290.003C631.637 290.194 633.926 290.194 636.215 290.385C637.742 290.385 639.077 290.576 640.603 290.576C645.372 290.767 649.951 291.149 654.529 291.34C657.009 291.531 659.68 291.722 662.16 291.722C663.877 291.912 665.785 291.912 667.502 292.103C669.982 292.294 672.462 292.485 674.942 292.676C676.659 292.867 678.375 292.867 680.092 293.058C686.006 293.44 691.729 293.822 697.452 294.394C699.551 294.585 701.84 294.776 703.939 294.967C707.372 295.349 710.997 295.54 714.24 295.922C717.292 296.113 720.154 296.494 723.015 296.685C740.566 298.404 756.209 300.504 769.754 302.604C772.425 302.986 775.095 303.558 777.575 303.94C805.428 308.331 821.452 314.059 821.452 320.359Z" fill="#B7B1BA"/>
<path d="M417.022 362.934C355.785 362.743 253.532 354.533 252.388 354.342C252.006 354.342 251.625 353.961 251.815 353.579C251.815 353.197 252.197 352.815 252.578 353.006C253.532 353.006 355.975 361.215 417.022 361.597C417.403 361.597 417.785 361.979 417.785 362.361C417.785 362.552 417.403 362.934 417.022 362.934Z" fill="white"/>
<path d="M309.237 319.405C309.237 319.405 350.825 231.774 417.022 236.165C483.41 240.556 405.576 353.388 405.576 353.388L309.237 319.405Z" fill="#AEDBA5"/>
<path d="M320.874 349.569C320.683 349.569 320.683 349.569 320.874 349.569C318.585 349.569 316.486 349.379 314.197 349.188C303.896 348.615 294.166 347.851 284.628 346.897C282.911 346.706 281.194 346.515 279.477 346.515C264.407 345.178 250.48 343.651 238.08 342.124C230.831 328.95 229.877 312.913 235.791 298.785C237.508 294.394 239.988 290.385 243.04 286.567C257.348 268.811 281.576 263.466 301.607 272.057C303.133 272.63 304.85 273.584 306.376 274.348C306.567 274.348 306.567 274.539 306.757 274.539C308.283 275.494 309.81 276.448 311.336 277.594C311.336 277.594 311.336 277.594 311.527 277.785C312.099 278.166 312.671 278.739 313.434 279.121C315.533 280.839 317.631 282.748 319.348 284.848C321.065 286.758 322.591 288.858 323.927 290.958C335.373 308.522 334.8 332.196 320.874 349.569Z" fill="#D84435"/>
<path d="M316.677 346.324C315.914 347.278 314.96 348.233 314.197 349.188C303.895 348.615 294.166 347.851 284.628 346.897C282.911 346.706 281.194 346.515 279.477 346.515C264.406 345.178 250.48 343.651 238.08 342.124C237.317 341.933 236.554 341.933 235.791 341.742C227.778 329.141 225.68 313.677 230.258 299.549C232.166 293.822 235.028 288.285 239.034 283.321C253.914 264.802 279.286 259.838 299.889 269.766C302.178 270.912 304.277 272.057 306.375 273.584C306.566 273.775 306.757 273.775 306.948 273.966C307.711 274.539 308.665 275.112 309.428 275.875C310.191 276.448 310.763 277.021 311.526 277.594C311.526 277.594 311.526 277.594 311.717 277.785C313.625 279.503 315.341 281.221 316.868 283.13C318.966 285.612 320.683 288.285 322.018 290.958C331.175 308.331 329.84 330.096 316.677 346.324Z" fill="#F2513B"/>
<path d="M265.17 272.439C264.979 272.439 264.979 272.439 264.788 272.248C264.597 272.057 264.788 271.866 264.979 271.675C265.17 271.484 271.656 267.857 282.72 269.384C282.911 269.384 283.102 269.575 283.102 269.766C283.102 269.957 282.911 270.148 282.72 270.148C271.846 268.811 265.551 272.248 265.36 272.248C265.17 272.439 265.17 272.439 265.17 272.439Z" fill="#EAD8CE"/>
<path d="M306.756 279.121C306.756 279.121 305.803 255.829 297.981 250.674C290.35 245.52 271.846 250.865 271.846 250.865C271.846 250.865 285.963 257.738 291.876 261.748C297.79 265.948 306.756 279.121 306.756 279.121Z" fill="#507849"/>
<path d="M306.757 279.121C306.757 279.121 305.994 261.748 312.671 262.32C319.348 262.893 326.788 271.293 329.268 275.684C331.748 280.076 313.434 279.121 313.434 279.121C313.434 279.121 334.609 285.612 338.806 292.676C343.003 299.931 343.194 308.331 343.194 308.331C343.194 308.331 326.025 283.894 306.757 279.121Z" fill="#507849"/>
<path d="M577.268 287.33C572.689 310.622 548.462 336.205 534.345 354.342C531.865 354.342 529.385 354.342 527.096 354.342C515.649 354.533 504.012 354.533 492.185 354.533C485.508 354.533 460.326 354.342 460.326 354.342C449.643 354.151 439.342 354.151 429.04 353.77C422.936 353.579 416.831 353.579 410.726 353.388C399.089 353.006 387.643 352.624 376.388 352.242C375.434 323.987 394.511 298.213 415.114 286.949C417.976 285.421 420.837 284.085 423.699 283.13C460.326 270.912 490.086 273.966 506.302 262.511C515.84 255.638 527.859 246.092 541.403 245.138C550.751 244.565 560.671 248.192 570.782 259.838C577.649 268.239 579.176 277.594 577.268 287.33Z" fill="#507849"/>
<path d="M574.978 287.139C568.874 310.24 542.357 333.151 529.194 351.479C528.621 352.433 527.858 353.388 527.095 354.342C515.649 354.533 504.012 354.533 492.184 354.533C485.508 354.533 479.021 354.533 472.535 354.533C472.344 354.915 460.326 354.533 460.326 354.533C449.643 354.342 439.341 354.342 429.04 353.961C422.935 353.77 416.831 353.77 410.726 353.579C399.089 353.197 387.643 352.815 376.388 352.433C375.815 352.433 375.243 352.433 374.861 352.433C371.046 326.659 384.781 301.84 402.523 287.521C408.628 282.558 415.114 278.739 421.6 276.639C458.228 264.42 487.987 267.475 504.203 256.02C520.227 244.565 549.415 229.101 570.781 260.22C576.695 269.002 577.458 278.166 574.978 287.139Z" fill="#A1BA85"/>
<path d="M477.876 336.778C477.876 338.687 477.686 340.596 477.304 342.315C477.304 342.696 477.113 343.269 476.922 343.651C476.922 344.033 476.732 344.224 476.732 344.606C476.732 344.987 476.541 345.178 476.541 345.56C476.541 345.942 476.35 346.133 476.35 346.324C476.159 346.706 476.159 347.088 475.969 347.469C475.396 348.806 474.824 350.333 474.252 351.67C474.061 352.051 473.87 352.433 473.679 353.006C473.679 353.197 473.489 353.388 473.489 353.388C473.298 353.77 464.522 354.533 460.516 354.533C449.833 354.342 439.532 354.342 429.23 353.961C423.126 353.77 417.021 353.77 410.916 353.579C407.482 347.469 405.766 340.596 406.147 333.723C406.147 333.532 406.147 333.151 406.147 332.96C406.147 332.578 406.147 332.005 406.338 331.623C406.338 331.05 406.529 330.287 406.529 329.714C406.529 329.332 406.719 328.759 406.719 328.378C406.719 327.996 406.91 327.614 406.91 327.232C407.101 326.659 407.101 326.087 407.292 325.514C407.482 325.132 407.482 324.75 407.673 324.177C408.055 322.841 408.627 321.696 409.199 320.55C410.153 318.45 411.489 316.35 412.824 314.25C424.461 298.213 447.162 294.585 463.187 306.231C473.107 313.486 478.258 325.132 477.876 336.778Z" fill="#B75542"/>
<path d="M552.467 248.956H552.277C541.403 243.229 532.246 247.62 532.055 247.811C531.864 248.001 531.483 247.811 531.292 247.62C531.101 247.429 531.292 247.047 531.483 246.856C531.483 246.856 541.403 242.083 552.658 248.001C552.849 248.192 553.04 248.383 552.849 248.765C552.658 248.765 552.658 248.956 552.467 248.956Z" fill="#EAD8CE"/>
<path d="M464.141 317.114C463.95 317.114 463.95 317.114 463.76 316.923C453.649 306.231 440.867 306.995 440.867 306.995C440.676 306.995 440.295 306.804 440.295 306.613C440.295 306.422 440.486 306.04 440.676 306.04C440.867 306.04 454.03 305.277 464.523 316.159C464.713 316.35 464.713 316.732 464.523 316.923C464.332 317.114 464.141 317.114 464.141 317.114Z" fill="#C9B1A6"/>
<path d="M423.889 350.906C425.606 352.051 427.323 353.197 429.04 353.961C422.935 353.77 416.83 353.77 410.726 353.579C407.292 347.469 405.575 340.596 405.957 333.723C405.957 333.532 405.957 333.151 405.957 332.96C405.957 332.578 405.957 332.005 406.147 331.623C406.147 331.05 406.338 330.287 406.338 329.714C406.338 329.332 406.529 328.759 406.529 328.378C406.529 327.996 406.72 327.614 406.72 327.232C406.91 326.659 406.91 326.087 407.101 325.514C407.674 323.796 408.246 322.077 409.009 320.55C408.627 332.005 413.778 343.651 423.889 350.906Z" fill="#9B453A"/>
<path d="M477.877 336.778C477.877 338.687 477.686 340.596 477.304 342.315C477.304 342.696 477.114 343.269 476.923 343.651C476.923 344.033 476.732 344.224 476.732 344.606C476.732 344.987 476.541 345.178 476.541 345.56C476.541 345.942 476.35 346.133 476.35 346.324C476.16 346.706 476.16 347.088 475.969 347.469C475.397 348.806 474.824 350.333 474.252 351.67C474.061 352.051 473.87 352.433 473.68 353.006C473.68 353.197 473.489 353.388 473.489 353.388C473.298 353.77 472.917 354.151 472.726 354.533C468.72 354.533 464.523 354.533 460.517 354.533C465.858 352.051 470.818 348.233 474.443 343.078C475.587 340.978 476.923 338.878 477.877 336.778Z" fill="#9B453A"/>
<path d="M812.105 328.569C809.816 329.523 807.145 330.478 804.093 331.432C792.837 334.869 776.24 338.114 755.256 340.978C744.573 342.506 732.745 343.842 719.773 345.178C719.773 344.224 719.963 343.078 720.154 342.124C720.727 338.878 721.49 335.632 722.443 332.96C724.16 327.614 726.068 323.796 726.068 323.796C726.068 323.796 721.68 324.368 715.767 320.932C712.142 318.832 708.136 315.395 704.13 309.668C704.13 309.668 702.794 311.386 700.505 313.104C698.979 314.25 696.88 315.586 694.4 316.35C690.585 317.686 685.816 318.068 680.283 315.968C678.948 315.395 677.613 314.823 676.277 314.059C676.087 313.868 675.896 313.868 675.705 313.677C665.213 307.186 662.733 296.685 662.351 291.149C662.16 288.858 662.16 287.521 662.16 287.521C662.16 287.521 648.234 285.612 643.083 273.966C641.939 271.102 641.176 268.048 641.176 264.039C641.367 240.938 663.305 238.647 663.305 238.647C663.305 238.647 660.253 215.546 679.52 212.3C702.794 208.482 714.24 225.282 714.813 226.046H715.003C716.53 225.282 730.456 218.791 746.671 236.928C763.459 255.638 750.296 274.73 749.723 275.494C750.487 275.303 764.222 270.912 774.714 284.085C780.437 291.34 779.102 299.167 777.767 303.367C777.576 303.749 777.576 303.94 777.385 304.322C776.813 305.849 776.24 306.613 776.24 306.613C776.24 306.613 781.391 305.468 787.877 306.04C795.508 306.613 805.047 309.668 810.197 320.168C811.342 322.841 811.914 325.705 812.105 328.569Z" fill="#4A6D43"/>
<path d="M755.255 340.978C744.572 342.506 732.745 343.842 719.772 345.178C719.581 345.178 719.391 345.178 719.2 345.178C718.246 345.178 717.292 345.369 716.338 345.369C714.049 345.56 711.76 345.751 709.471 345.942C706.418 346.133 703.175 346.515 699.932 346.706C690.585 347.469 680.665 348.233 670.554 348.997C668.646 349.188 666.929 349.188 665.021 349.379C668.074 344.224 670.363 340.214 670.935 339.26C671.698 337.542 673.606 326.659 675.705 315.395C675.895 314.823 675.895 314.441 675.895 313.868C677.421 305.468 678.948 297.067 679.901 292.294C680.092 290.958 680.474 290.003 680.474 289.24C680.665 288.667 681.237 288.094 682 288.094C685.243 288.094 694.4 287.903 696.689 289.24C697.261 289.621 697.261 291.149 697.071 293.631C696.88 297.449 696.117 303.177 694.972 309.477C694.591 311.768 694.209 314.25 693.828 316.541C692.301 326.468 690.775 335.442 691.538 335.823C692.492 336.205 703.557 329.141 713.858 322.077C714.431 321.696 714.812 321.505 715.385 321.123C723.015 315.968 730.074 311.004 731.791 310.05C735.606 307.568 740.375 315.204 739.994 317.114C739.231 320.55 730.265 327.423 722.061 333.151C719.772 334.869 717.674 336.396 715.766 337.733C711.569 340.787 708.898 342.887 709.661 343.269C710.234 343.46 712.523 343.269 715.766 342.887C716.911 342.696 718.246 342.696 719.772 342.505C731.6 341.169 749.341 338.496 751.249 339.069C752.775 338.878 754.111 339.833 755.255 340.978Z" fill="#75996D"/>
<path d="M802.185 318.45C798.751 311.386 793.218 307.759 787.686 305.849C784.062 304.704 780.246 304.322 777.194 304.131C772.043 304.131 768.418 304.895 768.418 304.895C768.418 304.895 768.991 303.749 769.754 301.84C771.28 297.64 772.806 289.812 766.892 282.367C761.551 275.684 754.874 274.539 749.532 275.303C744 275.875 739.612 278.357 739.231 278.548C739.803 277.594 755.637 253.92 738.849 235.21C729.501 224.71 720.917 224.328 715.003 225.855H714.812C709.852 227.192 706.8 230.055 706.8 230.055C706.8 230.055 701.649 209.627 679.52 212.109C678.757 212.109 678.185 212.3 677.612 212.3C658.154 215.546 655.483 236.928 655.483 236.928C655.483 236.928 633.545 239.41 633.354 262.511C633.163 283.13 654.338 285.803 654.338 285.803C654.338 285.803 654.148 287.712 654.529 290.385C655.292 296.113 657.963 305.658 667.883 311.768C670.745 313.486 673.415 314.632 675.895 315.204C677.421 315.586 678.948 315.777 680.283 315.777C687.914 315.777 693.255 311.386 695.354 309.286C696.117 308.522 696.498 308.14 696.498 308.14C697.834 310.05 699.169 311.577 700.505 313.104C705.846 318.832 710.997 321.123 714.431 321.886C717.102 322.459 718.628 322.268 718.628 322.268C718.628 322.268 716.529 328.95 716.338 337.351C716.338 339.069 716.338 340.787 716.338 342.506C716.338 343.46 716.529 344.415 716.72 345.369C717.674 345.369 718.628 345.178 719.582 345.178C719.772 345.178 719.963 345.178 720.154 345.178C732.935 343.842 744.954 342.506 755.637 340.978C776.431 338.114 793.028 334.869 804.474 331.432C804.855 327.423 804.474 323.032 802.185 318.45Z" fill="#507849"/>
<path d="M647.662 278.93H647.471C636.788 272.248 639.077 258.502 639.077 258.311C639.077 258.12 639.268 257.929 639.649 257.929C639.84 257.929 640.031 258.12 640.031 258.502C640.031 258.693 637.742 271.866 648.043 278.166C648.234 278.357 648.234 278.548 648.234 278.739C647.852 278.739 647.662 278.93 647.662 278.93Z" fill="#75996D"/>
<path d="M277.187 346.324C272.99 345.942 268.793 345.56 264.787 345.178C257.347 344.415 250.098 343.651 243.23 342.887C241.323 342.696 239.606 342.506 237.889 342.315C237.507 342.315 237.317 342.315 236.935 342.124C236.553 342.124 235.981 341.933 235.6 341.933C224.535 340.596 214.615 339.069 205.84 337.351C201.261 336.587 197.255 335.632 193.249 334.869C189.433 329.714 186.381 323.796 184.473 317.114C183.71 314.25 182.947 311.386 182.566 308.522C178.56 280.267 195.538 252.584 223.772 244.183C254.677 234.828 287.298 252.583 296.646 283.512C297.6 286.567 298.172 289.621 298.553 292.676C301.797 313.295 293.212 333.723 277.187 346.324Z" fill="#66915D"/>
<path d="M264.978 345.178C257.538 344.415 250.289 343.651 243.421 342.887C241.514 342.696 239.797 342.506 238.08 342.315C237.698 342.315 237.507 342.315 237.126 342.124C236.744 342.124 236.172 341.933 235.791 341.933C224.726 340.596 214.806 339.069 206.031 337.351C199.735 331.432 194.775 323.796 192.104 315.013C191.341 312.15 190.769 309.477 190.387 306.613C187.335 282.367 202.215 258.884 226.252 251.629C253.151 243.61 281.384 258.884 289.397 285.803C290.16 288.285 290.732 290.767 291.114 293.249C294.357 314.441 283.674 335.251 264.978 345.178Z" fill="#A1BA85"/>
<path d="M263.834 336.778L252.96 340.024L243.612 342.887C241.705 342.696 239.988 342.506 238.271 342.315C237.889 342.315 237.698 342.315 237.317 342.124C236.363 340.978 235.791 339.451 236.172 337.923L238.843 326.85L241.514 315.777C242.277 312.341 246.665 311.004 249.145 313.486L257.538 321.314L265.932 329.141C268.221 331.432 267.268 335.632 263.834 336.778Z" fill="#AEDBA5"/>
<path d="M255.439 306.04C252.769 303.558 253.913 299.167 257.347 298.213L268.412 294.967L279.476 291.722C282.91 290.767 286.153 293.822 285.199 297.258L282.529 308.331L279.858 319.405C279.095 322.841 274.707 324.177 272.227 321.696L264.024 313.868L255.439 306.04Z" fill="#AEDBA5"/>
<path d="M255.821 291.722C252.578 293.058 248.954 290.194 249.526 286.567L251.434 275.303L253.341 264.039C253.914 260.602 258.11 258.884 260.781 261.175L269.557 268.43L278.332 275.684C281.003 277.975 280.43 282.367 276.997 283.703L266.314 287.712L255.821 291.722Z" fill="#AEDBA5"/>
<path d="M233.119 312.722C233.883 309.286 230.639 306.231 227.206 307.186L216.332 310.622L205.458 314.059C202.024 315.013 201.07 319.405 203.55 321.886L211.944 329.714L220.338 337.542C223.009 340.024 227.206 338.687 227.969 335.251L230.639 324.177L233.119 312.722Z" fill="#AEDBA5"/>
<path d="M225.107 300.886C228.541 300.122 229.877 295.922 227.587 293.249L219.766 284.849L211.944 276.448C209.464 273.775 205.267 274.73 204.123 278.166L200.689 289.049L197.255 299.931C196.11 303.368 199.163 306.613 202.787 305.849L214.043 303.367L225.107 300.886Z" fill="#AEDBA5"/>
<path d="M232.738 286.949C235.408 289.431 239.605 288.094 240.368 284.658L243.039 273.584L245.71 262.511C246.473 259.075 243.23 256.02 239.796 256.975L228.732 260.22L217.667 263.466C214.233 264.42 213.279 268.811 215.759 271.293L224.153 279.121L232.738 286.949Z" fill="#AEDBA5"/>
<path d="M238.652 294.394C239.224 296.113 238.27 297.831 236.553 298.404C234.836 298.976 233.12 298.022 232.547 296.304C231.975 294.585 232.929 292.867 234.646 292.294C236.172 291.722 238.08 292.676 238.652 294.394Z" fill="#AEDBA5"/>
<path d="M245.138 299.167C245.71 300.886 244.757 302.604 243.04 303.177C241.323 303.749 239.606 302.795 239.034 301.076C238.461 299.358 239.415 297.64 241.132 297.067C242.849 296.494 244.566 297.449 245.138 299.167Z" fill="#AEDBA5"/>
<path d="M246.473 292.103C247.045 293.822 246.092 295.54 244.375 296.113C242.658 296.685 240.941 295.731 240.369 294.013C239.796 292.294 240.75 290.576 242.467 290.003C244.184 289.431 245.901 290.385 246.473 292.103Z" fill="#AEDBA5"/>
<path d="M241.895 305.658C242.467 307.377 241.513 309.095 239.797 309.668C238.08 310.24 236.363 309.286 235.79 307.568C235.218 305.849 236.172 304.131 237.889 303.558C239.606 302.986 241.323 303.94 241.895 305.658Z" fill="#AEDBA5"/>
<path d="M250.48 304.322C251.052 306.04 250.098 307.759 248.382 308.331C246.665 308.904 244.948 307.949 244.375 306.231C243.803 304.513 244.757 302.795 246.474 302.222C248.191 301.649 249.908 302.604 250.48 304.322Z" fill="#AEDBA5"/>
<path d="M253.15 295.922C253.722 297.64 252.768 299.358 251.051 299.931C249.335 300.504 247.618 299.549 247.045 297.831C246.473 296.113 247.427 294.394 249.144 293.822C250.861 293.249 252.578 294.394 253.15 295.922Z" fill="#AEDBA5"/>
<path d="M235.409 301.267C235.981 302.986 235.027 304.704 233.31 305.277C231.593 305.849 229.876 304.895 229.304 303.177C228.732 301.458 229.686 299.74 231.403 299.167C233.119 298.595 234.836 299.549 235.409 301.267Z" fill="#AEDBA5"/>
<path d="M719.391 345.178C716.148 345.56 712.905 345.751 709.662 346.133C706.61 346.324 703.367 346.706 700.123 346.897C690.776 347.66 680.856 348.424 670.745 349.188C667.502 349.379 664.259 349.569 661.016 349.76C655.674 350.142 650.142 350.333 644.61 350.715C642.511 350.906 640.413 350.906 638.314 351.097C637.17 351.097 635.834 351.288 634.499 351.288C633.354 351.288 632.21 351.479 630.874 351.479C627.631 351.67 624.388 351.86 621.145 351.86C607.6 333.723 605.502 309.095 616.567 288.667C617.711 286.567 619.046 284.467 620.573 282.367C639.459 256.211 676.087 250.102 702.222 269.002C711.951 276.066 718.819 285.421 722.825 295.922C728.93 311.768 727.976 329.714 719.391 345.178Z" fill="#66915D"/>
<path d="M709.662 346.133C706.61 346.324 703.367 346.706 700.124 346.897C690.776 347.66 680.856 348.424 670.745 349.188C667.502 349.379 664.259 349.569 661.016 349.76C655.674 350.142 650.142 350.333 644.61 350.715C642.511 350.906 640.413 350.906 638.314 351.097C637.17 351.097 635.834 351.288 634.499 351.288C633.354 351.288 632.21 351.479 630.874 351.479C615.041 334.678 612.37 308.904 625.342 289.049C625.724 288.285 626.296 287.712 626.868 286.949C643.274 264.229 674.942 259.075 697.834 275.303C705.084 280.648 710.616 287.33 714.241 294.967C721.681 311.195 720.536 330.669 709.662 346.133Z" fill="#A1BA85"/>
<path d="M662.923 330.86L661.779 342.315L661.016 349.76C655.674 350.142 650.142 350.333 644.609 350.715L644.037 350.142L634.689 343.46C631.828 341.36 632.209 336.969 635.453 335.442L645.945 330.669L656.437 325.896C659.68 324.75 663.305 327.232 662.923 330.86Z" fill="#AEDBA5"/>
<path d="M700.124 346.897C690.776 347.66 680.856 348.424 670.745 349.188L671.317 343.078L672.462 331.623C672.844 327.996 676.85 326.278 679.711 328.378L689.059 335.06L698.407 341.742C700.124 343.078 700.696 345.178 700.124 346.897Z" fill="#AEDBA5"/>
<path d="M684.098 323.223C681.046 321.314 681.237 316.923 684.289 315.204L694.4 309.859L704.511 304.513C707.563 302.795 711.378 305.086 711.378 308.713L710.997 320.168L710.615 331.623C710.425 335.251 706.609 337.351 703.557 335.442L693.828 329.332L684.098 323.223Z" fill="#AEDBA5"/>
<path d="M653.766 318.068C657.009 316.541 657.391 312.15 654.529 310.05L645.182 303.367L635.834 296.685C632.972 294.585 628.966 296.494 628.585 299.931L627.44 311.386L626.295 322.841C625.914 326.468 629.538 328.95 632.782 327.423L643.274 322.65L653.766 318.068Z" fill="#AEDBA5"/>
<path d="M657.963 304.513C660.634 306.804 664.831 305.277 665.403 301.649L667.311 290.385L669.219 279.121C669.791 275.684 666.357 272.821 663.114 273.966L652.431 277.976L641.748 281.985C638.314 283.13 637.742 287.712 640.413 289.812L649.188 297.067L657.963 304.513Z" fill="#AEDBA5"/>
<path d="M673.797 302.031C673.416 305.658 677.04 308.14 680.283 306.804L690.776 302.031L701.268 297.258C704.511 295.731 704.893 291.34 702.031 289.24L692.683 282.558L683.336 275.875C680.474 273.775 676.468 275.684 676.086 279.121L674.942 290.576L673.797 302.031Z" fill="#AEDBA5"/>
<path d="M671.317 311.195C670.363 312.722 668.265 312.913 666.739 311.959C665.213 311.004 665.022 308.904 665.976 307.377C666.929 305.849 669.028 305.659 670.554 306.613C672.08 307.568 672.462 309.668 671.317 311.195Z" fill="#AEDBA5"/>
<path d="M671.699 319.214C670.745 320.741 668.647 320.932 667.121 319.977C665.594 319.023 665.404 316.923 666.357 315.395C667.311 313.868 669.41 313.677 670.936 314.632C672.462 315.777 672.844 317.686 671.699 319.214Z" fill="#AEDBA5"/>
<path d="M677.994 315.968C677.04 317.495 674.942 317.686 673.415 316.732C671.889 315.777 671.699 313.677 672.652 312.15C673.606 310.622 675.705 310.431 677.231 311.386C678.757 312.532 679.138 314.441 677.994 315.968Z" fill="#AEDBA5"/>
<path d="M664.64 320.55C663.687 322.077 661.588 322.268 660.062 321.314C658.536 320.359 658.345 318.259 659.299 316.732C660.253 315.204 662.351 315.013 663.877 315.968C665.213 317.114 665.594 319.214 664.64 320.55Z" fill="#AEDBA5"/>
<path d="M670.745 326.659C669.791 328.187 667.693 328.378 666.166 327.423C664.64 326.468 664.449 324.368 665.403 322.841C666.357 321.314 668.456 321.123 669.982 322.077C671.508 323.223 671.89 325.132 670.745 326.659Z" fill="#AEDBA5"/>
<path d="M679.138 323.605C678.185 325.132 676.086 325.323 674.56 324.368C673.034 323.414 672.843 321.314 673.797 319.786C674.751 318.259 676.849 318.068 678.375 319.023C679.711 320.168 680.092 322.268 679.138 323.605Z" fill="#AEDBA5"/>
<path d="M664.068 312.913C663.114 314.441 661.016 314.632 659.49 313.677C657.964 312.722 657.773 310.622 658.727 309.095C659.68 307.568 661.779 307.377 663.305 308.331C664.831 309.286 665.022 311.386 664.068 312.913Z" fill="#AEDBA5"/>
<path d="M164.825 329.332C164.825 329.332 155.859 349.569 150.708 348.424C145.557 347.088 143.84 340.596 143.84 340.596C143.84 340.596 138.117 326.659 144.412 325.132C152.234 323.223 164.825 329.332 164.825 329.332Z" fill="#F77E6D"/>
<path d="M111.027 514.904L121.138 532.277L144.412 524.831L132.584 504.976L111.027 514.904Z" fill="#F77E6D"/>
<path d="M66.7695 533.423L67.3418 514.331L90.0434 513.185V534.568L66.7695 533.423Z" fill="#F77E6D"/>
<path d="M19.2676 330.096C19.2676 330.096 29.3783 355.679 44.2583 363.888C56.2768 370.57 69.8214 367.897 69.8214 367.897L67.3414 343.651L53.9876 340.405C51.5076 339.26 44.4491 334.487 42.3507 332.578L32.4307 321.505L19.2676 330.096Z" fill="#F77E6D"/>
<path d="M87.7536 317.495C87.7536 317.495 91.3783 307.949 86.9906 306.804C82.6029 305.658 78.5967 311.195 78.5967 311.195C78.5967 311.195 69.6306 313.486 67.1506 319.214C64.4798 324.941 74.209 332.387 74.209 332.387L87.7536 317.495Z" fill="black"/>
<path d="M101.49 395.58L100.536 449.419C100.536 449.419 99.9634 476.148 99.0096 498.103C98.628 505.74 97.2926 518.722 96.9111 523.877H62.9542C62.7634 500.776 61.2373 432.809 62.3819 421.736C63.5265 408.181 66.0065 395.199 66.0065 395.199L97.2926 395.39L101.49 395.58Z" fill="#FFA63B"/>
<path d="M111.982 524.641C107.976 517.958 98.6283 497.339 95.0036 488.748C93.2867 484.93 97.1021 395.39 97.1021 395.39V395.199L107.976 392.335C107.976 392.335 138.69 486.266 146.13 513.186L111.982 524.641Z" fill="#FFA63B"/>
<path d="M68.6771 410.472C68.1048 410.472 67.5325 410.472 66.9602 410.281C66.7694 410.281 66.5787 410.09 66.7694 409.899C66.7694 409.708 66.9602 409.517 67.151 409.708C73.8279 411.236 78.0248 402.644 78.0248 402.454C78.0248 402.263 78.4064 402.263 78.5971 402.263C78.7879 402.263 78.7879 402.644 78.7879 402.835C78.7879 402.644 74.9725 410.472 68.6771 410.472Z" fill="white"/>
<path d="M98.6274 497.721C98.4366 497.721 98.2459 497.53 98.2459 497.339L96.7197 416.2C96.7197 416.009 96.7197 416.009 96.9105 415.818L106.258 409.708C106.449 409.517 106.64 409.708 106.83 409.899C107.021 410.09 106.83 410.281 106.64 410.472L97.4828 416.581L99.1997 497.53C99.009 497.53 98.8182 497.721 98.6274 497.721Z" fill="white"/>
<path d="M90.4243 341.169C90.4243 341.169 99.3904 341.551 103.015 348.233C106.64 354.915 109.31 395.008 109.31 395.008C109.31 395.008 99.1997 399.208 84.7012 399.017C70.012 398.826 65.052 395.39 65.052 395.39L62.1904 370.761C62.1904 370.761 62.572 344.033 66.1966 342.124C70.012 340.215 84.3197 339.833 90.4243 341.169Z" fill="#AF4D04"/>
<path d="M75.7354 333.341L76.6892 342.124C76.6892 342.124 77.4523 343.651 83.3661 344.224C87.1815 344.606 88.8984 343.269 88.8984 343.269L87.9446 338.878L86.9907 334.487L77.4523 333.341H75.7354Z" fill="#F77E6D"/>
<path d="M77.4521 333.532C77.4521 333.723 77.6429 334.105 77.8337 334.296C80.3137 338.496 85.6552 338.878 87.9445 338.878L86.9906 334.487L77.4521 333.532Z" fill="black"/>
<path d="M86.8 315.013C86.8 315.013 92.1416 325.705 90.997 332.005C89.8523 338.305 84.32 337.923 81.077 336.969C77.8339 336.014 76.117 334.105 76.117 334.105C76.117 334.105 73.2554 335.442 70.9662 332.769C68.677 330.096 69.6308 326.468 71.3477 325.705C73.0647 324.75 75.1631 325.896 75.1631 325.896L73.2554 322.841C73.4462 322.65 78.7877 305.658 86.8 315.013Z" fill="#F77E6D"/>
<path d="M75.3535 330.478H75.1627L71.1566 327.996C70.9658 327.805 70.9658 327.614 70.9658 327.423C71.1566 327.232 71.3474 327.232 71.5381 327.232L75.5443 329.714C75.735 329.905 75.7351 330.096 75.7351 330.287C75.5443 330.478 75.3535 330.478 75.3535 330.478Z" fill="black"/>
<path d="M71.9196 330.86C71.7289 330.86 71.7289 330.86 71.5381 330.669C71.5381 330.478 71.5381 330.287 71.7289 330.287L74.2089 329.332C74.3996 329.332 74.5904 329.332 74.5904 329.523C74.5904 329.714 74.5904 329.905 74.3996 329.905L71.9196 330.86Z" fill="black"/>
<path d="M80.1228 320.359C79.7412 320.168 79.7412 319.977 79.7412 319.786C80.6951 318.068 82.2212 318.259 82.9843 318.45C83.1751 318.45 83.1751 318.832 83.1751 319.023C83.1751 319.214 82.7935 319.214 82.6027 319.214C82.412 319.214 81.0766 318.641 80.3135 320.168C80.3135 320.359 80.3135 320.359 80.1228 320.359Z" fill="black"/>
<path d="M88.1354 319.214H87.9447C86.9908 318.641 86.2277 319.214 86.037 319.214C85.8462 319.405 85.6554 319.214 85.4647 319.214C85.2739 319.023 85.4647 318.832 85.4647 318.641C85.8462 318.259 86.9908 317.877 88.1354 318.641C88.3262 318.832 88.3262 319.023 88.1354 319.214C88.3262 319.214 88.3262 319.214 88.1354 319.214Z" fill="black"/>
<path d="M87.7544 327.996C87.5636 327.996 87.3729 327.805 87.3729 327.614C87.9452 324.368 85.6559 323.414 85.4652 323.414C85.2744 323.414 85.2744 323.223 85.2744 323.032C85.2744 322.841 85.4652 322.841 85.656 322.841C85.656 322.841 88.7083 323.987 87.9452 327.805C88.1359 327.805 87.9452 327.996 87.7544 327.996Z" fill="black"/>
<path d="M88.5167 323.414C88.3259 323.414 88.1352 323.414 88.1352 323.223L87.3721 321.314C87.3721 321.123 87.3721 320.932 87.5628 320.932C87.7536 320.932 87.9444 320.932 87.9444 321.123L88.7075 323.032C88.8982 323.223 88.8982 323.414 88.5167 323.414Z" fill="black"/>
<path d="M83.1759 324.177C82.9851 324.177 82.7943 324.177 82.7943 323.987L82.0312 322.077C82.0312 321.886 82.0312 321.696 82.222 321.696C82.4128 321.696 82.6036 321.696 82.6036 321.886L83.3666 323.796C83.7482 323.796 83.5574 323.987 83.1759 324.177C83.3666 324.177 83.3666 324.177 83.1759 324.177Z" fill="black"/>
<path d="M87.7542 317.495C87.7542 317.495 86.6095 315.777 84.5111 315.968C82.4126 316.159 81.268 317.877 81.268 317.877C81.268 317.877 82.6034 321.505 79.9326 323.796C77.2618 326.087 74.9726 325.705 74.9726 325.705L72.8742 325.132L71.1572 322.077L76.4988 314.632L83.748 309.477L87.9449 312.913L87.7542 317.495Z" fill="black"/>
<path d="M85.2742 331.432C84.5111 331.432 83.1757 331.05 82.6034 329.905C82.4127 329.714 82.6034 329.523 82.7942 329.332C82.985 329.141 83.1757 329.332 83.3665 329.523C84.1296 331.05 85.8465 330.669 85.8465 330.669C86.0373 330.669 86.2281 330.669 86.2281 330.86C86.2281 331.05 86.228 331.241 86.0373 331.241C85.6557 331.432 85.465 331.432 85.2742 331.432Z" fill="black"/>
<path d="M33.0032 320.359C33.0032 320.359 31.477 314.059 28.2339 311.004C24.8001 308.14 20.7939 306.231 21.557 308.904C22.3201 311.577 24.6093 315.777 24.6093 315.777L18.5047 314.059C18.5047 314.059 14.4986 312.15 11.637 311.386C8.77549 310.622 7.82164 312.722 7.82164 312.722C7.82164 312.722 4.9601 311.959 3.62472 312.722C2.28933 313.486 3.24318 315.395 3.24318 315.395C3.24318 315.395 -0.953744 315.395 0.57241 318.641C2.09856 321.886 10.4924 327.232 14.4986 329.141C18.5047 331.05 27.6616 332.196 27.6616 332.196C27.6616 332.196 35.4832 334.296 33.0032 320.359Z" fill="#F77E6D"/>
<path d="M10.4928 321.886C10.302 321.886 10.302 321.886 10.1112 321.696C9.92048 321.505 10.1112 321.314 10.302 321.123L20.9851 315.395C21.1759 315.395 21.3666 315.395 21.5574 315.586C21.7482 315.777 21.5574 315.968 21.3666 316.159L10.4928 321.886Z" fill="black"/>
<path d="M152.043 277.976C152.043 277.976 152.615 293.822 135.637 296.494C120.947 298.785 112.172 287.14 112.172 287.14C112.172 287.14 96.9104 297.258 85.4642 283.894C72.6827 268.811 85.4642 254.875 85.4642 254.875C85.4642 254.875 70.3935 241.701 81.2673 228.528C94.4304 212.682 111.79 217.646 111.79 217.646C111.79 217.646 116.56 204.091 138.498 206.763C160.437 209.436 162.153 230.055 162.153 230.055C162.153 230.055 168.449 218.791 183.329 221.464C194.966 223.564 197.064 235.21 197.064 235.21C197.064 235.21 209.655 217.646 226.633 224.901C243.612 231.964 236.935 254.875 236.935 254.875C236.935 254.875 247.809 260.029 245.71 274.539C241.895 297.831 219.384 292.103 219.384 292.103C219.384 292.103 214.997 302.031 197.446 301.458C180.277 300.886 174.172 274.73 174.172 274.73C174.172 274.73 167.877 281.794 152.043 277.976Z" fill="#4A6D43"/>
<path d="M125.526 276.257C125.144 276.639 124.953 277.212 125.144 277.785C127.624 282.939 146.129 312.722 147.083 315.777C148.227 319.023 153.95 355.679 154.904 358.161C157.575 366.37 162.916 369.616 170.738 369.616C171.12 369.616 171.501 369.616 171.883 369.616C181.04 368.852 187.144 360.07 185.427 351.097L177.224 310.622C177.033 309.859 177.224 308.904 177.796 308.14L207.175 270.53C207.556 270.148 207.366 269.575 206.793 269.575C204.886 269.384 200.88 269.002 199.163 269.766C197.064 270.912 176.843 294.967 174.553 295.922C172.455 297.067 182.184 266.902 179.513 262.129C178.75 260.602 171.31 258.311 170.166 262.129C169.021 265.948 160.246 300.886 158.72 301.458C157.193 302.031 138.498 268.048 135.827 268.621C133.538 269.193 127.624 274.348 125.526 276.257Z" fill="#75996D"/>
<path d="M146.129 281.412C146.129 281.412 146.702 297.258 129.723 299.931C115.034 302.222 106.258 290.576 106.258 290.576C106.258 290.576 90.997 300.695 79.5508 287.33C66.7693 272.248 79.5508 258.311 79.5508 258.311C79.5508 258.311 69.2493 243.038 80.1231 229.864C93.2862 214.018 108.929 224.901 108.929 224.901C108.929 224.901 110.646 207.336 132.394 210.2C154.332 212.873 157.003 238.074 157.003 238.074C157.003 238.074 162.535 222.228 177.225 224.901C188.862 227.001 190.96 238.647 190.96 238.647C190.96 238.647 203.551 221.082 220.529 228.337C237.508 235.401 230.831 258.311 230.831 258.311C230.831 258.311 242.658 261.557 239.606 277.976C236.935 292.676 217.668 290.003 217.668 290.003C217.668 290.003 212.708 301.267 195.348 300.695C178.178 300.122 168.449 277.976 168.449 277.976C168.449 277.976 161.963 285.23 146.129 281.412Z" fill="#507849"/>
<path d="M95.5759 290.194C86.2282 290.194 80.8866 281.412 80.8866 281.412C80.6959 281.221 80.8866 281.03 81.0774 280.839C81.2682 280.648 81.4589 280.839 81.6497 281.03C81.6497 281.221 87.7543 290.958 97.8651 289.24C98.0559 289.24 98.2466 289.431 98.2466 289.621C98.2466 289.812 98.0559 290.003 97.8651 290.003C97.102 290.003 96.3389 290.194 95.5759 290.194Z" fill="#75996D"/>
<path d="M197.446 297.831C197.255 297.831 197.064 297.64 197.064 297.449C197.064 297.258 197.255 297.067 197.446 297.067C197.637 297.067 207.748 296.113 211.944 287.903C211.944 287.712 212.326 287.712 212.517 287.712C212.708 287.712 212.708 288.094 212.708 288.285C208.129 296.876 197.637 297.831 197.446 297.831Z" fill="#75996D"/>
<path d="M157.767 349.379C157.576 349.379 157.385 349.188 157.385 348.997L153.379 324.941C153.379 324.75 153.57 324.559 153.76 324.559C153.951 324.559 154.142 324.75 154.142 324.941L158.148 348.997C158.148 348.997 158.148 349.188 157.767 349.379Z" fill="#B0D8A7"/>
<path d="M28.4244 324.559C22.7013 322.268 24.4182 316.732 24.4182 316.732C24.4182 316.541 24.609 316.35 24.7997 316.541C24.9905 316.541 25.1813 316.732 24.9905 316.923C24.9905 317.114 23.4644 321.886 28.4244 323.987C28.6151 323.987 28.6151 324.368 28.6151 324.368C28.6151 324.368 28.6151 324.559 28.4244 324.559Z" fill="black"/>
<path d="M141.741 333.342C141.741 333.342 140.978 328.569 142.123 326.85C143.077 325.132 150.326 318.45 153.188 320.55C154.523 321.505 149.181 328.95 149.181 328.95C149.181 328.95 150.326 331.623 150.326 335.633C150.326 339.642 145.557 340.405 145.557 340.405L141.741 333.342Z" fill="#F77E6D"/>
<path d="M151.47 338.878C151.28 338.878 151.089 338.687 151.089 338.496C150.898 334.296 148.8 330.86 148.8 330.86C148.609 330.669 148.8 330.478 148.99 330.287C149.181 330.096 149.372 330.287 149.563 330.478C149.563 330.669 151.852 334.105 152.043 338.496C151.852 338.687 151.661 338.878 151.47 338.878Z" fill="black"/>
<path d="M19.2676 333.151C19.2676 333.151 28.9968 356.252 39.8707 362.361C50.7445 368.47 64.8614 369.616 64.8614 369.616L76.4983 340.405C76.4983 340.405 55.7045 339.833 49.9814 335.442C44.2583 331.241 35.1014 321.886 35.1014 321.886L19.2676 333.151Z" fill="#AF4D04"/>
<path d="M49.0283 345.178C48.4559 345.178 48.2652 344.987 48.0744 344.606C47.1206 343.078 50.3636 337.16 51.1267 336.205C51.1267 336.014 51.3175 336.014 51.5083 336.014C51.699 336.014 51.699 336.205 51.699 336.396C51.699 336.587 51.8898 342.887 50.1729 344.606C49.9821 345.178 49.6006 345.178 49.0283 345.178ZM51.1267 337.924C49.7913 340.405 48.4559 343.651 48.8375 344.415C48.8375 344.415 48.8375 344.606 49.0283 344.606C49.219 344.606 49.4098 344.415 49.6006 344.224C50.7452 343.269 51.1267 340.024 51.1267 337.924Z" fill="#F7C537"/>
<path d="M94.4304 341.933C94.4304 341.933 107.975 346.897 119.803 346.324C131.63 345.751 141.55 335.442 141.55 335.442L153.95 349.188C153.95 349.188 145.938 371.143 127.243 375.725C108.357 380.116 93.4766 368.279 93.4766 368.279L94.4304 341.933Z" fill="#AF4D04"/>
<path d="M125.145 352.624C124.763 352.624 124.382 352.433 124 352.242C122.283 350.906 122.283 346.515 122.283 346.324C122.283 346.133 122.283 346.133 122.474 345.942C122.665 345.942 122.665 345.942 122.856 345.942C123.619 346.515 127.243 349.569 126.862 351.288C126.862 351.67 126.48 352.051 125.717 352.242C125.526 352.624 125.336 352.624 125.145 352.624ZM122.856 347.278C122.856 348.615 123.237 350.906 124.191 351.67C124.572 351.86 124.954 352.051 125.336 351.86C125.908 351.67 125.908 351.479 125.908 351.479C126.289 350.524 124.382 348.424 122.856 347.278Z" fill="#F7C537"/>
<path d="M107.594 375.725C107.403 375.725 107.212 375.534 107.212 375.343L105.305 361.406C105.305 361.215 105.495 361.025 105.686 361.025C105.877 361.025 106.068 361.215 106.068 361.406L107.975 375.343C107.975 375.534 107.975 375.725 107.594 375.725Z" fill="#F7C537"/>
<path d="M95.0028 549.651C95.0028 551.56 94.2397 553.66 92.7136 554.233C91.1874 554.805 78.9782 555.951 68.4859 555.187C58.3751 554.424 56.2767 553.851 55.5136 552.896C55.1321 552.514 55.8951 550.605 56.6582 548.696C56.6582 548.696 56.6582 548.505 56.849 548.314C57.2305 547.36 57.6121 546.405 57.9936 545.832C58.3751 545.26 58.7567 544.687 59.1382 544.114C60.2828 542.778 62.3813 540.105 62.9536 538.578C63.7167 536.668 64.8613 532.659 65.6244 530.75C66.3874 528.841 68.2951 528.459 68.2951 528.459C68.2951 528.459 75.3536 523.113 90.8059 528.268C92.7136 528.841 93.0951 538.387 93.0951 539.723V541.059C93.0951 542.396 94.049 544.878 94.8121 546.787C95.0028 547.36 95.1936 547.742 95.1936 548.314C95.0028 548.887 95.0028 549.269 95.0028 549.651Z" fill="#507849"/>
<path d="M178.942 552.133C179.514 552.133 179.896 551.56 179.705 550.987C179.133 548.314 177.607 540.678 173.219 537.432C167.877 533.423 156.622 531.895 152.616 529.223C148.61 526.55 144.031 520.249 141.551 521.395C139.071 522.54 134.683 528.268 128.007 527.504C121.33 526.741 118.277 525.213 116.56 526.741C114.843 528.268 113.89 550.796 114.653 552.133C115.416 553.469 124.763 552.133 125.527 552.324C126.29 552.514 128.579 547.169 130.105 547.932C131.631 548.696 133.539 551.178 135.828 552.324C137.926 553.469 172.265 553.087 178.942 552.133Z" fill="#507849"/>
<path d="M149.181 532.277C148.991 532.277 148.991 532.277 149.181 532.277C148.8 532.086 148.8 531.895 148.8 531.704C148.8 531.514 149.563 529.795 150.707 527.886C152.424 524.259 154.141 519.677 153.569 518.149C153.569 517.958 153.378 517.768 153.188 517.768C152.806 517.768 152.424 517.767 152.234 517.958C150.517 519.295 149.754 525.022 149.563 527.122C149.563 527.313 149.372 527.504 149.181 527.504C148.991 527.504 148.8 527.313 148.8 527.122C148.8 526.741 149.372 519.104 151.661 517.386C152.234 517.004 152.615 517.004 153.188 517.004C153.569 517.004 153.951 517.386 154.141 517.768C154.714 519.104 153.951 521.777 152.806 524.641C154.141 523.113 155.667 521.968 157.384 522.35C158.338 522.54 158.529 523.113 158.72 523.495C159.292 525.977 153.378 531.323 152.615 531.895C152.424 532.086 152.234 532.086 152.043 531.895C151.852 531.704 151.852 531.514 152.043 531.323C153.76 529.795 158.338 525.404 157.957 523.686C157.957 523.495 157.766 523.113 157.194 523.113C155.095 522.54 152.997 525.404 151.28 528.077C150.326 529.986 149.563 531.514 149.372 531.895C149.372 532.277 149.181 532.277 149.181 532.277Z" fill="#FFA63B"/>
<path d="M75.1628 541.25C74.3997 541.059 69.6305 539.15 69.2489 537.241C69.0582 536.859 69.2489 536.477 69.4397 536.096C69.6305 535.714 70.012 535.523 70.5843 535.523C71.7289 535.332 73.4459 536.286 74.7813 537.05C73.2551 534.95 71.3474 531.704 71.9197 530.368C72.1105 529.986 72.3012 529.604 73.0643 529.604C76.4982 529.032 78.7874 538.959 78.9782 540.105C78.9782 540.296 78.9782 540.487 78.7874 540.487C78.5966 540.487 78.4059 540.487 78.4059 540.296C77.452 536.477 75.5443 530.368 73.4459 530.368H73.2551C72.8736 530.368 72.8736 530.559 72.6828 530.75C72.1105 532.086 74.972 536.287 76.8797 538.578C77.0705 538.768 77.0705 538.959 76.8797 539.15C76.6889 539.341 76.4982 539.341 76.3074 539.15C75.3536 538.387 72.3012 536.287 70.7751 536.477C70.5843 536.477 70.3936 536.668 70.2028 536.859C70.012 537.05 70.012 537.241 70.2028 537.432C70.5843 538.768 74.2089 540.487 75.7351 541.059C75.9259 541.059 75.9259 541.25 75.9259 541.441C75.3536 541.059 75.3536 541.25 75.1628 541.25Z" fill="#FFA63B"/>
<path d="M84.1297 344.797C79.9327 344.797 76.4989 342.506 76.3081 342.506C76.1173 342.315 76.1173 342.124 76.3081 341.933C76.4989 341.742 76.6897 341.742 76.8804 341.933C76.8804 341.933 82.7943 345.942 88.7081 343.078C88.8989 343.078 89.0897 343.078 89.2804 343.269C89.2804 343.46 89.2804 343.651 89.0897 343.842C87.3727 344.606 85.6558 344.797 84.1297 344.797Z" fill="#F7C537"/>
<path d="M597.108 388.898C597.108 388.898 591.003 403.026 595.582 406.081C599.969 409.136 603.785 409.517 603.785 409.517C603.785 409.517 617.52 404.554 615.422 399.781C611.988 392.526 597.108 388.898 597.108 388.898Z" fill="#F77E6D"/>
<path d="M626.486 299.358C626.486 299.358 635.071 266.33 610.271 264.229C594.818 262.893 520.8 320.359 520.8 338.114C520.8 352.051 534.344 358.161 534.344 358.161C534.344 358.161 530.911 357.206 533.009 365.225C535.107 373.243 543.883 382.216 543.883 382.216C543.883 382.216 537.778 389.853 550.369 403.217C560.289 413.718 658.726 385.462 664.068 366.37C670.744 343.078 644.037 339.26 644.037 339.26C644.037 339.26 655.483 328.187 646.135 310.813C636.978 294.013 626.486 299.358 626.486 299.358Z" fill="#D84435"/>
<path d="M614.658 287.139C614.658 287.139 621.907 295.922 625.723 304.322C629.538 312.722 632.4 327.232 632.4 327.232C632.4 327.232 642.32 331.814 644.418 334.678C646.517 337.542 646.517 337.542 646.517 337.542C646.517 337.542 648.234 333.723 648.806 324.177C649.378 315.204 647.47 310.622 647.47 310.622C647.47 310.622 673.034 291.531 673.034 287.33C673.224 283.13 657.772 274.539 655.864 276.83C653.957 279.121 642.129 299.549 642.129 299.549C642.129 299.549 627.821 285.23 614.658 287.139Z" fill="#507849"/>
<path d="M618.664 290.576C618.664 290.576 625.913 299.358 629.729 307.759C633.544 316.159 636.406 330.669 636.406 330.669C636.406 330.669 646.326 335.251 648.424 338.114C650.523 340.978 650.523 340.978 650.523 340.978C650.523 340.978 652.239 337.16 652.812 327.614C653.384 318.641 651.476 314.059 651.476 314.059C651.476 314.059 672.843 291.531 673.033 287.33C673.224 283.13 661.778 277.975 660.061 280.267C658.344 282.558 646.326 302.986 646.326 302.986C646.326 302.986 631.827 288.476 618.664 290.576Z" fill="#6A915E"/>
<path d="M623.815 293.058C623.815 293.058 633.544 265.184 608.744 263.084C593.292 261.748 520.8 315.968 520.8 333.914C520.8 347.851 531.864 351.86 531.864 351.86C531.864 351.86 530.911 357.397 533.2 365.416C535.298 373.434 541.594 376.107 541.594 376.107C541.594 376.107 541.021 390.426 548.08 397.108C561.243 409.517 657.772 377.825 661.778 360.261C665.975 342.696 641.747 333.151 641.747 333.151C641.747 333.151 650.904 323.223 644.609 308.331C636.787 290.194 623.815 293.058 623.815 293.058Z" fill="#F2513B"/>
<path d="M537.588 349.569H537.397C537.206 349.379 537.206 349.188 537.397 348.997C560.862 319.023 618.092 294.967 618.665 294.776C618.855 294.776 619.046 294.776 619.046 294.967C619.046 295.158 619.046 295.349 618.855 295.349C618.283 295.54 561.243 319.405 537.969 349.379C537.778 349.569 537.778 349.569 537.588 349.569Z" fill="#EAD8CE"/>
<path d="M544.837 375.152C544.646 375.152 544.455 374.961 544.455 374.961C544.455 374.771 544.455 374.58 544.646 374.58C597.298 359.688 636.024 336.014 636.406 335.823C636.597 335.632 636.787 335.823 636.787 336.014C636.978 336.205 636.787 336.396 636.597 336.396C636.406 336.587 597.68 360.07 544.837 375.152Z" fill="#EAD8CE"/>
<path d="M636.406 395.008C636.406 395.008 642.511 389.28 650.332 396.726C658.154 404.172 656.246 441.21 656.246 441.21L638.886 437.773L638.123 412.19L636.406 395.008Z" fill="black"/>
<path d="M620.572 409.517C620.572 409.517 617.52 406.272 618.092 401.117C618.474 397.681 620 396.344 620 396.344C620 396.344 617.52 391.571 624.578 391.762C631.637 391.762 635.834 395.199 635.834 395.199C635.834 395.199 639.077 393.48 640.603 397.299C642.129 400.926 640.984 406.654 640.984 406.654L620.572 409.517Z" fill="black"/>
<path d="M636.216 414.099V422.5C636.216 422.5 634.69 424.982 629.73 425.364C626.105 425.745 624.77 423.836 624.77 423.836L625.533 416.391L634.499 414.29L636.216 414.099Z" fill="#F77E6D"/>
<path d="M636.215 414.29C636.215 414.481 636.024 414.863 636.024 415.054C634.117 419.445 627.249 421.736 625.15 421.927L625.532 417.727L636.215 414.29Z" fill="black"/>
<path d="M623.625 397.681C623.625 397.681 619.237 408.563 620.954 414.481C622.862 420.4 628.203 419.445 631.446 418.109C634.689 416.772 636.216 414.863 636.216 414.863C636.216 414.863 639.268 415.818 641.366 412.954C643.274 410.09 641.939 406.845 640.222 406.081C638.505 405.317 636.406 406.654 636.406 406.654L637.933 403.408C637.933 403.599 630.683 387.944 623.625 397.681Z" fill="#F77E6D"/>
<path d="M636.406 406.654C636.406 406.654 631.827 407.799 628.393 402.644C624.959 397.681 625.15 395.58 625.15 395.58L622.098 400.926C622.098 400.926 621.335 397.299 622.67 394.817C624.006 392.335 625.532 392.908 625.532 392.908L635.833 395.008L638.695 403.026L636.406 406.654Z" fill="black"/>
<path d="M624.387 411.427C624.196 411.427 624.006 411.427 624.006 411.236C623.243 408.945 624.769 406.654 624.769 406.463C624.959 406.272 625.15 406.272 625.341 406.272C625.532 406.463 625.532 406.654 625.532 406.845C625.532 406.845 624.196 408.945 624.769 411.045C624.769 411.045 624.769 411.236 624.387 411.427Z" fill="black"/>
<path d="M636.978 411.808H636.788C636.597 411.618 636.597 411.427 636.788 411.236L639.649 407.99C639.84 407.799 640.031 407.799 640.221 407.99C640.412 408.181 640.412 408.372 640.221 408.563L637.36 411.808C637.169 411.618 637.169 411.808 636.978 411.808Z" fill="black"/>
<path d="M640.031 410.854L637.932 410.663C637.742 410.663 637.551 410.472 637.551 410.281C637.551 410.09 637.742 409.899 637.932 409.899L640.031 410.09C640.222 410.09 640.412 410.281 640.412 410.472C640.412 410.663 640.222 410.854 640.031 410.854Z" fill="black"/>
<path d="M622.098 402.644C621.908 402.644 621.717 402.454 621.717 402.263C621.717 402.072 621.717 401.881 621.908 401.881L623.815 401.499C624.006 401.499 624.197 401.499 624.197 401.69C624.197 401.881 624.197 402.072 624.006 402.072L622.098 402.644Z" fill="black"/>
<path d="M629.92 403.599L626.677 402.072C626.486 402.072 626.486 401.69 626.486 401.499C626.486 401.308 626.868 401.308 627.059 401.308L630.302 402.835C630.492 402.835 630.492 403.217 630.492 403.408C630.302 403.599 630.111 403.599 629.92 403.599Z" fill="black"/>
<path d="M622.289 407.036C622.098 407.036 622.098 407.036 622.289 407.036C621.907 407.036 621.907 406.845 621.907 406.654L622.289 404.935L621.716 404.363C621.526 404.172 621.526 403.981 621.716 403.79C621.907 403.599 622.098 403.599 622.289 403.79L622.861 404.554C622.861 404.554 623.052 404.745 622.861 404.935L622.289 406.845C622.479 406.845 622.289 407.036 622.289 407.036Z" fill="black"/>
<path d="M627.631 407.417C627.249 407.417 627.249 407.226 627.249 407.036L627.631 405.317L626.868 404.554C626.677 404.363 626.677 404.172 626.868 403.981C627.058 403.79 627.249 403.79 627.44 403.981L628.203 404.935C628.203 404.935 628.394 405.126 628.203 405.317L627.631 407.226C628.012 407.226 627.822 407.417 627.631 407.417Z" fill="black"/>
<path d="M626.486 413.909C626.104 413.909 626.104 413.718 626.104 413.527C626.104 413.336 626.295 413.145 626.486 413.145C626.486 413.145 627.44 413.145 628.394 411.618C628.394 411.427 628.775 411.427 628.966 411.427C629.157 411.427 629.157 411.808 629.157 411.999C628.012 413.718 626.868 413.909 626.486 413.909Z" fill="black"/>
<path d="M634.69 600.244L634.117 612.081L612.56 616.854L611.606 608.644L613.323 598.144L634.69 600.244Z" fill="#F77E6D"/>
<path d="M611.606 474.238C611.606 474.238 607.218 510.131 605.883 544.687C604.548 579.243 603.594 604.253 603.594 604.253L640.985 605.589L642.511 536.859L641.557 474.238H611.606Z" fill="#AD4D40"/>
<path d="M673.797 502.876L665.976 512.04L682.382 525.595L693.065 516.049L673.797 502.876Z" fill="#F77E6D"/>
<path d="M656.818 474.238C656.818 474.238 660.634 487.603 662.923 499.249C665.212 510.704 668.455 526.168 668.455 526.168C668.455 526.168 680.855 561.106 658.154 566.261C630.111 572.561 628.775 538.578 628.775 538.578L631.637 467.365L656.818 474.238Z" fill="#AD4D40"/>
<path d="M678.757 382.216C678.757 382.216 685.434 371.907 687.151 364.27C688.867 356.633 687.914 353.77 686.769 353.388C685.624 353.006 683.526 357.397 683.526 357.397C683.526 357.397 685.052 350.333 682.572 349.379C680.092 348.424 678.184 354.533 678.184 354.533C678.184 354.533 678.184 349.188 676.086 349.76C673.987 350.333 671.126 361.788 671.126 361.788C671.126 361.788 670.554 355.679 668.837 356.061C667.12 356.442 664.449 364.843 665.021 368.088C665.594 371.525 667.883 375.725 667.883 375.725L678.757 382.216Z" fill="#F77E6D"/>
<path d="M635.261 422.118C635.261 422.118 647.661 406.654 652.431 395.962C657.2 385.271 662.16 370.761 662.16 370.761L684.671 382.025C684.671 382.025 682.572 398.253 673.797 414.863C665.021 431.664 657.2 439.873 657.2 439.873C657.2 439.873 658.917 475.957 658.344 476.529C657.772 477.102 645.754 481.493 630.683 480.539C615.612 479.775 611.034 476.338 610.271 475.766C609.508 475.193 616.566 428.418 616.566 428.418C616.566 428.418 631.255 426.7 635.261 422.118Z" fill="#FFA63B"/>
<path d="M631.256 633.654C632.782 633.654 634.117 632.318 634.117 630.6C634.308 623.918 635.834 609.026 634.689 609.026C633.163 609.026 617.329 612.653 617.329 612.653C617.329 612.653 617.329 603.298 610.843 604.826C605.883 605.971 599.969 611.508 597.489 614.181C596.726 614.944 595.772 615.517 594.628 615.708C590.049 616.663 577.268 619.908 576.696 626.781C576.123 634.991 579.557 634.227 581.083 634.227C582.228 634.036 620.382 633.845 631.256 633.654Z" fill="#507849"/>
<path d="M689.44 485.693C688.296 484.739 686.388 484.93 685.243 486.075C680.665 491.039 670.936 504.403 671.699 505.167C672.843 506.122 684.671 511.849 684.671 511.849C684.671 511.849 680.665 517.958 686.579 521.013C691.157 523.304 699.36 522.922 702.794 522.541C703.939 522.35 705.083 522.54 706.037 523.113C710.234 525.404 722.062 531.132 726.831 526.168C732.554 520.249 729.502 518.722 728.357 517.577C727.403 516.813 697.834 492.566 689.44 485.693Z" fill="#507849"/>
<path d="M673.797 373.625C673.606 373.625 673.415 373.434 673.415 373.243C674.369 365.416 670.935 362.17 670.935 362.17C670.744 361.979 670.744 361.788 670.935 361.597C671.126 361.406 671.317 361.406 671.507 361.597C671.698 361.788 675.323 365.034 674.369 373.434C674.178 373.625 673.987 373.625 673.797 373.625Z" fill="black"/>
<path d="M683.144 366.179L672.461 360.643C672.271 360.643 672.271 360.261 672.271 360.07C672.271 359.879 672.652 359.879 672.843 359.879L683.335 365.416C683.526 365.416 683.526 365.797 683.526 365.988C683.335 365.988 683.335 366.179 683.144 366.179Z" fill="black"/>
<path d="M624.006 423.836C624.006 423.836 613.704 428.8 610.461 423.073C607.218 417.345 610.461 409.327 610.461 409.327L590.812 402.072C590.812 402.072 574.978 437.01 589.858 446.174C608.363 457.438 628.394 450.565 628.394 450.565L624.006 423.836Z" fill="#FFA63B"/>
<path d="M636.788 420.4C636.788 420.4 633.163 427.464 624.96 424.027C616.757 420.4 647.471 472.329 647.471 472.329L643.274 427.464L636.788 420.4Z" fill="#FFA63B"/>
<path d="M599.778 403.599H599.587C599.396 403.408 599.396 403.217 599.396 403.026C603.212 397.299 607.981 397.108 608.172 397.108C608.363 397.108 608.553 397.299 608.553 397.49C608.553 397.681 608.363 397.872 608.172 397.872C608.172 397.872 603.593 397.872 599.969 403.408C599.969 403.599 599.969 403.599 599.778 403.599Z" fill="black"/>
<path d="M692.301 526.168L667.12 507.84L660.824 518.34L662.732 564.733C662.732 564.542 672.843 562.251 692.301 526.168Z" fill="#AD4D40"/>
<path d="M641.366 564.542H641.175C640.984 564.542 631.446 557.096 626.486 538.578C621.716 521.013 624.196 494.857 624.578 491.803L614.467 487.221C614.276 487.221 614.276 486.839 614.276 486.648C614.276 486.457 614.658 486.457 614.849 486.457L625.15 491.039C625.341 491.039 625.341 491.23 625.341 491.421C625.341 491.612 622.289 519.677 627.249 538.005C632.209 556.333 641.556 563.397 641.747 563.588C641.938 563.779 641.938 563.97 641.747 564.16C641.556 564.542 641.366 564.542 641.366 564.542Z" fill="#FFA63B"/>
<path d="M658.726 522.922C658.154 522.922 657.963 522.731 657.772 522.54C656.819 520.822 662.732 513.567 664.449 511.276C664.64 511.085 664.64 511.085 664.831 511.276C665.022 511.276 665.022 511.467 665.022 511.658C665.022 512.04 663.114 522.35 658.917 522.922C659.108 522.922 658.917 522.922 658.726 522.922ZM664.259 512.804C661.015 516.813 658.154 521.204 658.535 521.968C658.535 521.968 658.726 522.159 659.108 521.968C661.588 521.777 663.495 516.24 664.259 512.804Z" fill="#FFA63B"/>
<path d="M655.865 493.712C655.674 493.712 647.852 492.948 645.754 482.639C645.754 482.448 645.754 482.257 645.945 482.257C646.135 482.257 646.326 482.257 646.326 482.448C648.425 492.376 655.483 492.948 655.674 492.948C655.865 492.948 656.055 493.139 656.055 493.33C656.246 493.521 656.055 493.712 655.865 493.712Z" fill="#FFA63B"/>
<path d="M606.074 429.182C605.692 429.182 605.502 429.182 605.12 428.991C604.357 428.8 604.166 428.227 604.166 427.846C603.976 425.936 609.126 423.263 610.271 422.691C610.462 422.691 610.462 422.691 610.652 422.691C610.843 422.691 610.843 422.882 610.843 423.073C610.843 423.264 609.699 427.464 607.409 428.8C606.837 428.991 606.456 429.182 606.074 429.182ZM609.699 423.836C607.409 425.173 604.739 427.082 604.739 427.846C604.739 428.036 604.929 428.227 605.311 428.227C605.883 428.418 606.456 428.418 606.837 428.036C608.363 427.464 609.317 424.982 609.699 423.836Z" fill="white"/>
<path d="M608.936 416.009L588.142 408.372C587.951 408.372 587.76 408.181 587.951 407.99C587.951 407.799 588.142 407.608 588.333 407.799L608.936 415.245C609.126 415.245 609.317 415.436 609.126 415.627C609.317 415.818 609.126 416.009 608.936 416.009Z" fill="white"/>
<path d="M683.145 388.517L660.825 378.016C660.634 378.016 660.634 377.634 660.634 377.443C660.634 377.252 661.015 377.252 661.206 377.252L683.335 387.562C683.526 387.562 683.526 387.944 683.526 388.135C683.335 388.517 683.335 388.517 683.145 388.517Z" fill="white"/>
<path d="M613.323 453.81C613.132 453.81 612.941 453.619 612.941 453.428C610.652 442.928 614.849 437.01 615.04 436.628C615.23 436.437 615.421 436.437 615.612 436.628C615.803 436.819 615.803 437.01 615.612 437.2C615.612 437.2 611.415 443.119 613.704 453.428C613.704 453.428 613.704 453.619 613.323 453.81Z" fill="white"/>
<path d="M629.538 425.364C628.202 425.364 626.485 424.982 624.387 424.218C624.196 424.218 624.196 423.836 624.196 423.836C624.196 423.645 624.578 423.645 624.578 423.645C632.59 427.082 635.261 421.545 635.452 421.354C635.452 421.163 635.833 421.163 636.024 421.163C636.215 421.163 636.215 421.545 636.215 421.736C636.215 421.736 634.307 425.364 629.538 425.364Z" fill="white"/>
<path d="M610.461 395.39C610.461 395.39 612.75 385.271 615.421 386.989C618.092 388.707 616.947 400.735 615.612 402.072C614.276 403.408 610.461 405.126 610.461 405.126V395.39Z" fill="#F77E6D"/>
<path d="M385.164 406.272C385.164 406.272 390.314 396.917 391.077 390.235C391.84 383.744 391.268 382.789 389.36 381.071C388.597 380.307 388.216 377.825 385.736 377.252C383.256 376.68 381.348 382.98 381.348 382.98C381.348 382.98 380.585 378.589 378.677 379.162C376.579 379.925 375.816 388.135 375.816 388.135C375.816 388.135 373.717 382.407 372.191 382.98C370.665 383.553 369.711 393.099 370.665 395.962C371.619 398.635 374.29 402.072 374.29 402.072L385.164 406.272Z" fill="#F77E6D"/>
<path d="M280.622 406.272C280.622 406.272 275.471 395.581 274.708 388.135C273.945 380.689 274.327 369.043 278.333 378.971C278.714 380.116 277.57 374.007 279.859 373.434C282.339 372.861 284.247 379.925 284.247 379.925C284.247 379.925 284.819 374.961 286.917 375.725C289.016 376.489 289.97 385.844 289.97 385.844C289.97 385.844 292.068 379.543 293.594 380.116C295.12 380.689 296.074 391.571 295.12 394.626C294.167 397.681 291.496 401.499 291.496 401.499L280.622 406.272Z" fill="#F77E6D"/>
<path d="M244.757 323.605C258.301 295.349 312.48 324.177 346.818 314.822C402.714 299.549 425.224 355.87 387.071 386.226C338.997 424.409 223.963 366.943 244.757 323.605Z" fill="#573B63"/>
<path d="M246.093 320.168C259.637 291.912 313.053 318.641 347.391 309.286C403.286 294.013 425.797 350.333 387.643 380.689C339.569 418.872 225.299 363.506 246.093 320.168Z" fill="#6A4A77"/>
<path d="M246.284 323.032C246.284 323.032 238.271 318.641 234.647 312.722C231.022 306.613 229.114 298.785 229.114 298.785C229.114 298.785 238.653 308.331 241.133 311.004C243.422 313.677 245.139 316.35 245.139 316.35C245.139 316.35 242.277 305.849 242.85 298.976C243.422 292.103 245.902 283.512 245.902 283.512C245.902 283.512 248 291.531 249.145 301.458C250.099 311.386 246.284 323.032 246.284 323.032Z" fill="#5D8954"/>
<path d="M246.856 322.077C246.856 322.077 237.889 320.932 231.403 323.605C224.917 326.278 218.812 331.623 218.812 331.623C218.812 331.623 232.166 329.523 235.6 328.759C239.034 327.996 241.896 326.659 241.896 326.659C241.896 326.659 233.311 333.532 229.877 339.26C226.443 345.178 223.391 353.579 223.391 353.579C223.391 353.579 229.877 348.233 236.363 340.978C243.231 333.914 246.856 322.077 246.856 322.077Z" fill="#5D8954"/>
<path d="M401.57 346.897C401.379 346.897 401.379 346.897 401.379 346.706L395.656 339.833C395.465 339.642 395.465 339.451 395.656 339.26C395.847 339.069 396.037 339.069 396.228 339.26L401.951 346.133C402.142 346.324 402.142 346.515 401.951 346.706C401.76 346.897 401.57 346.897 401.57 346.897Z" fill="#8B6A9B"/>
<path d="M397.945 346.515C397.754 346.515 397.563 346.324 397.563 346.133L398.708 340.024C398.708 339.833 398.899 339.642 399.09 339.642C399.28 339.642 399.471 339.833 399.471 340.024L398.327 346.133C398.136 346.515 398.136 346.515 397.945 346.515Z" fill="#8B6A9B"/>
<path d="M256.394 316.732C256.203 316.732 256.203 316.732 256.012 316.541C255.821 316.35 255.821 316.159 256.012 315.968C256.012 315.968 264.215 309.668 277.951 311.386C278.141 311.386 278.332 311.577 278.332 311.768C278.332 311.959 278.141 312.15 277.951 312.15C264.406 310.431 256.585 316.541 256.585 316.541C256.585 316.732 256.585 316.732 256.394 316.732Z" fill="#8B6A9B"/>
<path d="M371.237 397.681C371.237 397.681 364.942 385.844 366.468 384.125C367.994 382.407 373.336 388.326 373.336 388.326C373.336 388.326 381.157 392.144 379.25 397.681C377.342 403.217 371.237 397.681 371.237 397.681Z" fill="#F77E6D"/>
<path d="M342.813 437.391C342.813 437.391 353.305 430.9 351.97 427.273C350.634 423.645 342.813 419.063 334.8 419.063C326.788 419.063 317.822 423.073 317.631 427.082C317.25 431.091 342.813 437.391 342.813 437.391Z" fill="#FFA63B"/>
<path d="M365.323 612.844C364.941 612.844 364.941 612.462 364.941 612.272C365.132 611.89 368.566 602.726 371.428 601.389C372 601.198 372.381 601.198 372.763 601.389C373.144 601.58 373.526 601.962 373.526 602.344C373.908 603.68 372.763 605.971 371.428 608.071C372.954 606.735 374.671 605.589 375.815 605.78C376.578 605.78 376.96 606.162 377.341 606.926C377.723 607.69 377.723 608.453 377.341 609.217C376.006 611.699 370.092 612.081 369.901 612.272C369.711 612.272 369.52 612.081 369.52 611.89C369.52 611.699 369.711 611.508 369.901 611.508C371.428 611.317 375.815 610.553 376.769 608.835C376.96 608.453 376.96 607.88 376.769 607.308C376.578 606.926 376.197 606.544 375.815 606.544C373.717 606.353 369.901 610.553 368.375 612.272L368.184 612.462C367.994 612.653 367.803 612.653 367.612 612.462C367.421 612.272 367.421 612.081 367.612 611.89L367.803 611.699C369.52 609.599 373.335 604.253 372.954 602.344C372.954 602.153 372.763 601.962 372.572 601.771C372.381 601.58 372 601.771 371.809 601.771C369.52 602.726 366.658 609.599 365.704 612.272C365.704 612.653 365.514 612.844 365.323 612.844Z" fill="#FFA63B"/>
<path d="M301.034 608.835C298.363 608.835 294.547 605.208 294.357 605.208C294.166 605.017 294.166 604.826 294.357 604.635C294.547 604.444 294.738 604.444 294.929 604.635C296.074 605.78 299.507 608.453 301.415 608.071C301.987 607.88 302.369 607.69 302.56 606.926C302.751 606.353 302.751 605.971 302.56 605.78C301.415 604.062 295.692 603.871 293.212 604.062C293.021 604.062 293.021 604.062 292.831 604.062C292.64 604.062 292.449 603.871 292.449 603.68C292.449 603.489 292.64 603.298 292.831 603.298H293.021C295.692 603.108 302.369 602.535 303.514 600.817C303.704 600.626 303.704 600.435 303.704 600.053C303.704 599.862 303.514 599.671 303.132 599.48C300.843 598.526 293.784 600.817 291.304 601.962C291.114 601.962 290.923 601.962 290.923 601.771C290.923 601.58 290.923 601.389 291.114 601.389C291.495 601.198 300.652 597.571 303.514 599.098C303.895 599.289 304.277 599.671 304.467 600.053C304.658 600.435 304.467 601.007 304.277 601.389C303.514 602.535 301.034 603.108 298.554 603.68C300.461 603.871 302.369 604.444 303.132 605.589C303.514 606.162 303.514 606.735 303.323 607.499C302.941 608.262 302.369 608.835 301.606 609.026C301.415 608.835 301.224 608.835 301.034 608.835Z" fill="#FFA63B"/>
<path d="M335.563 628.881C335.563 629.263 335.945 629.645 336.327 629.645L387.071 633.654C387.453 633.654 387.834 633.272 388.025 632.891L388.407 628.309C388.407 627.927 388.216 627.545 387.643 627.354C387.453 627.354 387.071 627.163 387.071 626.972C387.071 626.781 387.071 626.781 387.071 626.59C387.262 625.254 387.262 622.39 385.736 619.908C383.637 616.663 372.191 612.844 367.04 610.553C363.797 609.026 362.08 605.208 361.317 602.726C360.936 601.389 359.6 600.244 358.265 600.244C352.542 600.053 338.997 599.48 338.043 599.671C336.899 599.862 335.754 609.981 336.136 613.99C336.517 617.999 337.28 622.581 337.28 622.581L335.754 622.39L335.563 628.881Z" fill="#AF4D04"/>
<path d="M335.563 628.881C335.563 629.263 335.945 629.645 336.327 629.645L387.071 633.654C387.453 633.654 387.834 633.272 388.025 632.891L388.407 628.309C388.407 627.927 388.216 627.545 387.643 627.354C387.453 627.354 387.071 627.163 387.071 626.972C372.763 626.018 337.28 622.39 337.28 622.39H335.754L335.563 628.881Z" fill="#AF4D04"/>
<path d="M258.684 593.753C258.302 594.134 258.302 594.516 258.684 594.898L292.831 632.509C293.213 632.891 293.594 632.891 293.976 632.509L297.41 629.454C297.791 629.072 297.791 628.69 297.601 628.309C297.41 628.118 297.41 627.736 297.41 627.545C297.41 627.354 297.601 627.354 297.601 627.163C298.554 626.209 300.653 624.108 301.225 621.245C301.988 617.235 296.074 606.735 293.976 601.771C292.641 598.526 293.976 594.516 295.121 592.034C295.693 590.698 295.502 589.171 294.548 588.025C290.542 584.016 281.004 574.279 280.241 573.706C279.287 573.134 271.465 579.625 268.985 582.87C266.505 586.116 264.025 589.934 264.025 589.934L263.262 588.789L258.684 593.753Z" fill="#AF4D04"/>
<path d="M258.684 593.753C258.302 594.134 258.302 594.516 258.684 594.898L292.831 632.509C293.213 632.891 293.594 632.891 293.976 632.509L297.41 629.454C297.791 629.072 297.791 628.69 297.601 628.309C297.41 628.118 297.41 627.736 297.41 627.545C287.681 617.045 264.216 590.316 264.216 590.316L263.453 589.171L258.684 593.753Z" fill="#AF4D04"/>
<path d="M360.745 481.684C360.745 481.684 374.099 516.622 377.724 540.296C381.348 564.16 368.757 602.917 368.757 602.917L330.031 602.344C330.031 602.344 337.28 563.969 338.616 552.324C339.57 539.532 332.702 483.784 332.702 483.784L360.745 481.684Z" fill="#FFA63B"/>
<path d="M315.723 481.111C315.723 481.111 308.474 512.231 293.784 538.387C279.286 564.351 272.228 571.797 272.228 571.797L302.56 597.953C302.56 597.953 337.28 559.197 341.668 532.85C346.055 506.503 345.674 482.83 345.674 482.83L315.723 481.111Z" fill="#FFA63B"/>
<path d="M318.394 496.194C317.631 496.194 316.677 496.003 315.723 495.812C315.532 495.812 315.341 495.621 315.532 495.43C315.532 495.239 315.723 495.048 315.914 495.239C323.163 497.339 326.406 490.085 326.597 489.894C326.597 489.703 326.978 489.703 327.169 489.703C327.36 489.703 327.36 490.085 327.36 490.275C327.169 490.085 324.308 496.194 318.394 496.194Z" fill="#AF4D04"/>
<path d="M302.56 536.668C302.369 536.668 302.369 536.668 302.178 536.668C300.271 536.287 298.172 532.086 297.981 531.704C297.981 531.514 297.981 531.323 297.981 531.323C298.172 531.132 298.172 531.132 298.363 531.132C298.935 531.323 303.705 533.041 303.895 534.95C303.895 535.332 303.895 535.905 303.132 536.477C303.132 536.477 302.751 536.668 302.56 536.668ZM299.126 532.086C299.889 533.423 301.415 535.523 302.369 535.905C302.56 535.905 302.751 535.905 302.751 535.905C303.323 535.523 303.132 535.141 303.132 535.141C303.132 533.995 300.843 532.85 299.126 532.086Z" fill="#AF4D04"/>
<path d="M303.705 588.407H303.514L277.188 566.642C276.997 566.451 276.997 566.26 277.188 566.07C277.379 565.879 277.57 565.879 277.76 566.07L304.086 587.834C304.277 588.025 304.277 588.216 304.086 588.407C303.896 588.407 303.705 588.407 303.705 588.407Z" fill="#AF4D04"/>
<path d="M339.379 543.923C339.188 543.923 339.188 543.923 339.379 543.923C338.997 543.732 338.997 543.541 338.997 543.35C343.766 533.041 345.292 499.439 345.292 499.249C345.292 499.058 345.483 498.867 345.483 498.867L356.929 495.43C357.12 495.43 357.311 495.43 357.311 495.621C357.311 495.812 357.311 496.003 357.12 496.003L346.056 499.439C345.865 502.876 344.339 533.614 339.76 543.541C339.569 543.923 339.379 543.923 339.379 543.923Z" fill="#AF4D04"/>
<path d="M365.323 595.662L332.32 595.089C332.129 595.089 331.938 594.898 331.938 594.707C331.938 594.516 332.129 594.325 332.32 594.325L365.323 594.898C365.514 594.898 365.705 595.089 365.705 595.28C365.705 595.471 365.514 595.662 365.323 595.662Z" fill="#AF4D04"/>
<path d="M386.88 627.545L337.09 622.963C336.899 622.963 336.708 622.772 336.708 622.581C336.708 622.39 336.899 622.199 337.09 622.199L386.88 626.781C387.071 626.781 387.262 626.972 387.262 627.163C387.262 627.354 387.071 627.545 386.88 627.545Z" fill="#FFA63B"/>
<path d="M297.41 627.927C297.219 627.927 297.219 627.927 297.219 627.736L264.025 590.507C263.834 590.316 263.834 590.125 264.025 589.934C264.216 589.743 264.406 589.743 264.597 589.934L297.791 627.163C297.982 627.354 297.982 627.545 297.791 627.736C297.6 627.927 297.41 627.927 297.41 627.927Z" fill="#FFA63B"/>
<path d="M369.33 399.208C369.33 399.208 374.29 416.009 366.278 422.882C358.456 429.755 346.628 426.7 343.958 426.509C341.287 426.318 334.038 425.555 328.887 426.7C323.736 427.655 311.718 427.464 304.087 416.963C296.456 406.654 296.074 399.017 296.074 399.017L273.564 399.399C273.564 399.399 271.656 426.7 284.438 440.637C293.404 450.565 310.954 454.001 310.954 454.001C310.954 454.001 311.527 464.693 312.099 470.229C312.481 475.766 314.961 483.021 314.961 483.021C314.961 483.021 327.551 485.693 340.905 485.503C354.259 485.312 362.271 483.784 362.271 483.784C362.271 483.784 363.034 480.539 363.034 472.711C363.225 464.883 361.89 454.574 361.89 454.574C361.89 454.574 387.262 453.428 393.558 436.628C399.853 419.636 391.078 398.826 391.078 398.826L369.33 399.208Z" fill="#507849"/>
<path d="M329.268 416.009L330.221 428.609C330.221 428.609 332.129 432.046 337.661 431.855C341.858 431.855 343.194 430.327 343.194 430.327L342.24 424.027L341.286 417.918L331.175 416.2L329.268 416.009Z" fill="#F77E6D"/>
<path d="M330.984 418.3C330.984 418.491 331.175 418.872 331.366 419.254C333.846 423.645 339.76 424.218 342.049 424.218L341.095 418.109L330.984 418.3Z" fill="black"/>
<path d="M340.332 398.635C340.332 398.635 345.674 409.517 344.529 416.009C343.385 422.5 338.043 421.927 334.609 420.973C331.366 420.018 329.649 418.109 329.649 418.109C329.649 418.109 326.788 419.445 324.498 416.581C322.209 413.718 323.163 410.281 324.88 409.327C326.597 408.372 328.695 409.517 328.695 409.517L326.788 406.463C326.978 406.272 332.32 389.089 340.332 398.635Z" fill="#F77E6D"/>
<path d="M328.887 414.29H328.696L324.69 411.808C324.499 411.618 324.499 411.427 324.499 411.236C324.69 411.045 324.881 411.045 325.071 411.045L329.077 413.527C329.268 413.718 329.268 413.909 329.268 414.099C329.268 414.29 329.077 414.29 328.887 414.29Z" fill="black"/>
<path d="M325.453 414.672C325.262 414.672 325.262 414.672 325.071 414.481C325.071 414.29 325.071 414.099 325.262 414.099L327.742 413.145C327.933 413.145 328.124 413.145 328.124 413.336C328.124 413.527 328.124 413.718 327.933 413.718L325.453 414.672C325.644 414.672 325.644 414.672 325.453 414.672Z" fill="black"/>
<path d="M333.656 403.981C333.274 403.79 333.274 403.599 333.274 403.408C334.228 401.69 335.754 401.881 336.517 402.072C336.708 402.072 336.708 402.454 336.708 402.644C336.708 402.835 336.327 402.835 336.136 402.835C335.945 402.835 334.801 402.263 333.847 403.79C334.037 403.981 333.847 403.981 333.656 403.981Z" fill="black"/>
<path d="M341.858 402.835H341.668C340.714 402.072 339.951 402.835 339.951 402.835C339.76 403.026 339.569 402.835 339.378 402.835C339.188 402.644 339.188 402.454 339.378 402.263C339.76 401.881 340.905 401.499 342.049 402.263C342.24 402.454 342.24 402.644 342.049 402.835C342.049 402.644 341.858 402.835 341.858 402.835Z" fill="black"/>
<path d="M334.419 407.99C334.037 407.799 334.037 407.608 334.037 407.417C334.037 407.417 334.609 406.463 335.563 406.081C336.517 405.89 337.089 406.654 337.471 407.036C337.471 407.226 337.471 407.417 337.28 407.608C337.089 407.608 336.899 407.608 336.708 407.417C336.708 407.417 336.326 406.654 335.754 406.845C334.991 407.036 334.609 407.799 334.609 407.799C334.609 407.99 334.419 407.99 334.419 407.99Z" fill="black"/>
<path d="M341.287 407.036C340.905 407.036 340.905 406.654 340.905 406.463C340.905 406.272 341.287 405.508 342.05 405.126C342.813 404.745 343.576 405.89 343.767 406.081C343.958 406.272 343.767 406.463 343.767 406.654C343.576 406.845 343.385 406.654 343.194 406.654C343.004 406.463 342.622 405.89 342.241 406.081C341.859 406.272 341.668 406.654 341.478 406.845C341.478 407.036 341.478 407.036 341.287 407.036Z" fill="black"/>
<path d="M337.852 416.39C337.471 416.39 337.089 416.39 336.899 416.2C336.326 415.818 335.945 415.054 335.754 414.099C335.754 413.909 335.754 413.909 335.945 413.718C336.135 413.718 336.135 413.718 336.326 413.718L339.188 415.627C339.379 415.627 339.379 415.818 339.379 416.009C339.379 416.2 339.379 416.2 339.188 416.39C338.997 416.2 338.425 416.39 337.852 416.39ZM336.517 414.672C336.708 415.054 336.899 415.245 337.089 415.436C337.28 415.627 337.662 415.627 337.852 415.627L336.517 414.672Z" fill="black"/>
<path d="M340.714 412.954C340.523 412.954 340.333 412.763 340.333 412.572C340.905 409.136 339.188 407.036 339.188 407.036C338.997 406.845 338.997 406.654 339.188 406.463C339.379 406.272 339.57 406.272 339.76 406.463C339.76 406.654 341.859 408.945 341.096 412.763C341.096 412.954 340.905 412.954 340.714 412.954Z" fill="black"/>
<path d="M351.97 427.273C351.97 427.273 352.733 430.709 348.154 433.382C343.576 436.055 337.853 437.391 337.853 437.391C337.853 437.391 328.314 435.1 322.21 432.046C317.441 429.755 316.296 427.273 318.204 425.364C320.302 423.454 327.17 423.454 327.17 423.454C327.17 423.454 331.748 424.982 334.038 426.318C336.327 427.655 337.853 428.418 337.853 428.418C337.853 428.418 341.668 425.555 344.721 424.982C347.582 424.409 348.154 425.173 348.154 425.173L351.97 427.273Z" fill="#FFA63B"/>
<path d="M344.529 445.41C344.338 445.41 344.148 445.219 344.148 445.219L341.858 438.346C341.858 438.155 341.858 437.964 342.049 437.964C342.24 437.964 342.431 437.964 342.431 438.155L344.72 445.028C344.911 445.028 344.72 445.219 344.529 445.41Z" fill="#FFA63B"/>
<path d="M329.268 445.792C329.078 445.792 328.887 445.601 328.887 445.41L330.604 438.155C330.604 437.964 330.794 437.773 330.985 437.964C331.176 437.964 331.367 438.155 331.176 438.346L329.459 445.601C329.65 445.601 329.459 445.792 329.268 445.792Z" fill="#FFA63B"/>
<path d="M375.053 424.6C373.145 424.6 369.902 419.445 369.139 418.3C369.139 418.109 369.139 417.918 369.139 417.918C369.329 417.727 369.329 417.727 369.52 417.918C370.093 418.109 375.243 420.591 376.006 422.882C376.197 423.264 376.006 423.645 375.816 424.027C375.625 424.409 375.243 424.6 375.053 424.6ZM370.665 419.063C372.191 421.163 374.099 423.836 375.053 423.836C375.053 423.836 375.243 423.836 375.434 423.645C375.625 423.454 375.625 423.264 375.434 423.073C375.053 421.736 372.382 420.018 370.665 419.063Z" fill="#FFA63B"/>
<path d="M301.797 425.745C301.415 425.745 301.224 425.745 300.843 425.555C300.271 425.364 300.271 424.982 300.271 424.6C300.461 423.073 305.803 420.782 307.52 420.209C307.711 420.209 307.901 420.209 307.901 420.4C308.092 420.591 308.092 420.782 307.901 420.782C307.52 421.354 304.277 425.745 301.797 425.745ZM306.566 421.354C303.704 422.5 301.034 423.836 301.034 424.6L301.224 424.791C302.56 425.555 305.04 423.264 306.566 421.354Z" fill="#FFA63B"/>
<path d="M328.886 409.327L330.603 410.663L328.886 406.654C328.886 406.654 333.274 404.172 334.609 401.881C335.754 399.781 336.517 398.826 336.517 398.826L340.332 398.444C340.332 398.444 344.72 390.044 339.569 389.662C334.418 389.28 326.406 397.108 324.88 400.163C323.354 403.217 324.88 405.508 324.88 405.508C324.88 405.508 322.972 405.699 322.591 407.036C322.209 408.563 323.735 410.472 323.735 410.472C323.735 410.472 325.643 408.181 328.886 409.327Z" fill="black"/>
<path d="M380.776 398.635C380.585 398.635 380.394 398.444 380.394 398.253C380.394 392.335 376.96 391.189 376.96 390.998C376.769 390.998 376.579 390.808 376.769 390.617C376.769 390.426 376.96 390.235 377.151 390.426C377.342 390.426 381.157 391.762 381.157 398.253C381.157 398.444 380.966 398.635 380.776 398.635Z" fill="black"/>
<path d="M295.502 387.944C295.502 387.944 297.028 380.307 294.548 379.543C291.877 378.971 290.161 386.798 290.161 386.798C290.161 386.798 284.628 393.671 286.536 396.153C288.444 398.826 293.404 393.671 293.404 393.671L295.502 387.944Z" fill="#F77E6D"/>
<path d="M286.536 398.253C286.345 398.253 286.154 398.062 286.154 397.872C286.154 388.517 290.924 387.944 291.114 387.944C291.305 387.944 291.496 388.135 291.496 388.326C291.496 388.517 291.305 388.707 291.114 388.707C290.924 388.707 286.727 389.28 286.727 398.062C286.917 398.062 286.727 398.253 286.536 398.253Z" fill="black"/>
<path d="M286.344 386.416H276.997C276.806 386.416 276.615 386.226 276.615 386.035C276.615 385.844 276.806 385.653 276.997 385.653H286.344C286.535 385.653 286.726 385.844 286.726 386.035C286.726 386.226 286.535 386.416 286.344 386.416Z" fill="black"/>
<path d="M752.203 82.4763C752.203 82.4763 756.591 87.4401 760.597 85.5309C764.603 83.6218 758.308 69.8757 758.308 69.8757L752.203 82.4763Z" fill="#F77E6D"/>
<path d="M715.003 25.2011C715.003 25.2011 700.314 11.455 692.492 12.9824C684.67 14.5097 676.658 28.8285 676.658 28.8285C676.658 28.8285 689.44 24.6283 695.544 23.4828C701.649 22.3373 715.003 25.2011 715.003 25.2011Z" fill="#A1BA85"/>
<path d="M715.003 25.2011C715.003 25.2011 704.129 15.0825 708.517 11.455C712.904 7.82761 722.634 8.59128 726.831 9.73678C731.028 10.8823 719.2 21.3827 719.2 21.3827C719.2 21.3827 735.988 12.6005 743.046 14.5097C750.104 16.4189 755.255 21.3827 755.255 21.3827C755.255 21.3827 729.692 16.4189 715.003 25.2011Z" fill="#A1BA85"/>
<path d="M758.728 67.3286C761.905 45.8424 747.077 25.8465 725.607 22.6666C704.138 19.4867 684.157 34.3269 680.98 55.8131C677.802 77.2993 692.631 97.2951 714.101 100.475C735.57 103.655 755.55 88.8148 758.728 67.3286Z" fill="#D84435"/>
<path d="M754.034 70.4207C758.976 49.2712 745.85 28.1167 724.717 23.1709C703.584 18.2251 682.446 31.3608 677.504 52.5103C672.562 73.6598 685.687 94.8142 706.821 99.7601C727.954 104.706 749.092 91.5702 754.034 70.4207Z" fill="#F2513B"/>
<path d="M686.769 42.0018C686.578 42.0018 686.388 41.8109 686.388 41.62C686.388 41.429 688.677 36.0834 696.117 31.3104C696.308 31.3104 696.498 31.3104 696.498 31.5013C696.498 31.6923 696.498 31.8832 696.308 31.8832C688.868 36.4652 686.769 41.8109 686.769 41.8109C687.151 41.8109 686.96 42.0018 686.769 42.0018Z" fill="#EAD8CE"/>
<path d="M758.88 85.9128C758.88 85.9128 779.865 109.205 802.185 101.377C823.36 93.9313 799.323 79.8034 799.323 79.8034C799.323 79.8034 777.385 79.9943 760.406 71.9758L758.88 85.9128Z" fill="#F77E6D"/>
<path d="M839.766 56.8933C839.766 56.8933 851.593 36.0834 851.784 22.9101C851.975 9.73679 864.375 21.7646 864.375 21.7646L866.855 26.7284C866.855 26.7284 867.618 55.9388 857.698 66.4392C845.107 79.4216 839.766 56.8933 839.766 56.8933Z" fill="#F77E6D"/>
<path d="M864.948 31.3104C864.948 31.3104 869.526 20.4282 869.908 13.1733C870.289 5.91845 868.954 3.2456 867.809 3.05469C866.664 2.86377 865.329 7.44578 865.329 7.44578C865.329 7.44578 865.52 0.572764 863.231 1.18539e-05C860.941 -0.381823 859.988 5.53661 859.988 5.53661C859.988 5.53661 859.224 0.572764 857.126 1.33643C855.028 2.1001 854.646 13.5551 854.646 13.5551C854.646 13.5551 853.12 8.01854 851.594 8.59129C850.068 9.16404 848.923 17.3735 850.068 20.4282C851.212 23.4828 853.883 27.1103 853.883 27.1103L864.948 31.3104Z" fill="#F77E6D"/>
<path d="M859.034 24.2465C858.843 24.2465 858.652 24.0556 858.652 23.8647C858.271 16.4189 854.455 13.937 854.455 13.937C854.265 13.7461 854.265 13.5551 854.265 13.3642C854.455 13.1733 854.646 13.1733 854.837 13.1733C855.028 13.3642 859.034 15.8461 859.415 23.6738C859.415 24.0556 859.225 24.2465 859.034 24.2465Z" fill="black"/>
<path d="M866.283 15.6552L854.646 11.8369C854.455 11.8369 854.264 11.646 854.455 11.4551C854.455 11.2641 854.646 11.0732 854.837 11.2641L866.473 14.8916C866.664 14.8916 866.855 15.0825 866.664 15.2734C866.664 15.4643 866.473 15.6552 866.283 15.6552Z" fill="black"/>
<path d="M817.828 40.6654C817.828 40.6654 824.886 36.847 831.563 42.3836C838.24 47.9202 832.708 54.6023 837.859 57.8479C842.819 61.0935 847.588 64.7209 846.825 70.2575C846.062 75.6032 848.542 82.2853 853.12 79.8034C860.179 75.7942 874.105 96.6041 863.803 104.814C841.865 122.378 811.723 80.5671 811.723 80.5671C811.723 80.5671 804.856 76.9397 806.572 67.5847C807.908 61.0935 817.828 50.784 817.828 40.6654Z" fill="black"/>
<path d="M834.805 47.1566C834.805 47.1566 834.042 54.2205 839.002 56.1297C843.009 57.657 846.633 58.2298 848.35 63.7664C850.067 69.112 846.633 72.5485 850.83 75.7941C854.836 79.0397 856.744 75.4123 862.849 79.0397C870.67 84.0036 866.282 93.7404 862.085 93.9313C857.889 94.3131 839.575 80.1852 839.575 80.1852L828.319 51.1658L834.805 47.1566Z" fill="black"/>
<path d="M828.129 63.9573L827.938 72.9304C827.938 72.9304 826.221 75.4123 821.071 75.7941C817.065 75.9851 815.92 73.885 815.92 73.885L817.064 66.0574L826.603 64.1482L828.129 63.9573Z" fill="#F77E6D"/>
<path d="M828.129 63.3845C828.129 63.5754 827.938 63.9573 827.938 64.3391C825.84 68.7302 818.781 70.4485 816.492 70.6394L817.064 66.2483L828.129 63.3845Z" fill="black"/>
<path d="M815.347 45.6292C815.347 45.6292 810.388 56.7024 812.104 63.0027C813.821 69.303 819.544 68.3484 822.978 67.2029C826.412 66.0574 827.938 63.9573 827.938 63.9573C827.938 63.9573 831.181 65.1028 833.28 62.0481C835.378 59.1843 834.234 55.7478 832.326 54.7932C830.418 54.0296 828.32 55.366 828.32 55.366L830.037 52.1204C830.228 52.1204 823.169 35.5106 815.347 45.6292Z" fill="#F77E6D"/>
<path d="M828.51 55.366C828.51 55.366 823.741 56.3206 820.307 50.9749C817.064 45.6292 817.255 43.3382 817.255 43.3382L814.012 48.8748C814.012 48.8748 813.249 45.0565 814.775 42.5746C816.301 40.0926 817.827 40.6654 817.827 40.6654L828.51 43.3382L831.372 51.9295L828.51 55.366Z" fill="black"/>
<path d="M815.729 59.7571C815.539 59.7571 815.348 59.5662 815.348 59.5662C814.585 57.0843 816.302 54.7933 816.302 54.6024C816.492 54.4114 816.683 54.4114 816.874 54.6024C817.065 54.7933 817.065 54.9842 816.874 55.1751C816.874 55.1751 815.348 57.4661 815.92 59.3753C816.302 59.5662 816.111 59.7571 815.729 59.7571C815.92 59.7571 815.92 59.7571 815.729 59.7571Z" fill="black"/>
<path d="M828.892 60.5208C828.892 60.5208 828.702 60.5208 828.702 60.3298C828.511 60.1389 828.511 59.948 828.702 59.7571L831.754 56.5115C831.945 56.3206 832.136 56.3206 832.326 56.5115C832.517 56.7024 832.517 56.8933 832.326 57.0843L829.274 60.3298C829.083 60.5208 829.083 60.5208 828.892 60.5208Z" fill="black"/>
<path d="M832.135 59.7571L830.037 59.3753C829.846 59.3753 829.655 59.1844 829.655 58.9934C829.655 58.8025 829.846 58.6116 830.037 58.6116L832.135 58.9934C832.326 58.9934 832.517 59.1844 832.517 59.3753C832.517 59.5662 832.326 59.7571 832.135 59.7571Z" fill="black"/>
<path d="M813.631 55.1751C813.249 55.1751 813.249 54.9842 813.249 54.7932L813.821 52.6932C813.821 52.5022 814.012 52.3113 814.203 52.5022C814.394 52.5022 814.584 52.6932 814.394 52.8841L813.821 54.9842C814.012 55.1751 813.821 55.1751 813.631 55.1751Z" fill="black"/>
<path d="M825.649 72.7395C825.649 72.7395 837.286 57.8479 841.864 47.7293L862.086 65.6755C853.883 81.5217 848.35 89.7311 848.35 89.7311C848.35 89.7311 847.969 123.714 847.587 124.287C847.206 124.86 834.424 127.724 820.116 126.96C805.809 126.196 802.756 124.096 801.993 123.714C801.23 123.333 807.907 78.8488 807.907 78.8488C807.907 78.8488 814.393 72.9304 825.649 72.7395Z" fill="#507849"/>
<path d="M819.353 55.7478C818.972 55.7478 818.972 55.5569 818.972 55.366L819.544 53.2659C819.544 53.075 819.735 52.8841 819.926 53.075C820.116 53.075 820.307 53.2659 820.116 53.4568L819.544 55.5569C819.544 55.5569 819.544 55.7478 819.353 55.7478Z" fill="black"/>
<path d="M819.926 63.0027C818.972 63.0027 818.018 62.6209 818.018 62.6209C817.827 62.6209 817.827 62.43 817.827 62.43C817.827 62.239 817.827 62.239 818.018 62.0481L821.07 59.7571C821.07 59.7571 821.261 59.7571 821.452 59.7571C821.643 59.7571 821.643 59.7571 821.643 59.948C821.643 59.948 822.596 61.6663 821.643 62.6209C821.07 62.8118 820.498 63.0027 819.926 63.0027ZM818.781 62.0481C819.544 62.239 820.307 62.43 820.689 61.8572C821.07 61.4754 820.879 60.7117 820.879 60.3299L818.781 62.0481Z" fill="black"/>
<path d="M813.631 50.5931C813.44 50.5931 813.249 50.4022 813.249 50.2112C813.249 50.0203 813.44 49.8294 813.631 49.8294L815.538 49.4476C815.729 49.4476 815.92 49.6385 815.92 49.8294C815.92 50.0203 815.729 50.2112 815.538 50.2112L813.631 50.5931Z" fill="black"/>
<path d="M821.834 51.9295L818.4 50.2112C818.209 50.2112 818.209 49.8294 818.209 49.6385C818.209 49.4476 818.591 49.4476 818.781 49.4476L822.024 51.1658C822.215 51.1658 822.215 51.5477 822.215 51.7386C822.215 51.7386 822.024 51.9295 821.834 51.9295Z" fill="black"/>
<path d="M814.584 74.8396C814.584 74.8396 815.156 72.9304 815.538 72.1667C816.11 71.4031 818.59 72.1667 822.024 71.594C825.458 71.0212 827.175 69.1121 827.747 69.1121C828.319 69.1121 828.701 71.2121 828.701 71.2121C828.701 71.2121 826.793 73.6941 826.412 74.0759C826.412 74.2668 814.584 74.8396 814.584 74.8396Z" fill="#507849"/>
<path d="M821.834 74.8396C821.643 74.8396 821.452 74.6486 821.452 74.4577C821.452 74.2668 821.643 74.0759 821.834 74.0759C822.978 73.885 826.412 73.1213 827.175 71.7849C827.366 71.594 827.557 71.594 827.748 71.594C827.938 71.7849 827.938 71.9758 827.938 72.1667C826.603 74.0759 822.215 74.8396 821.834 74.8396C822.024 74.8396 822.024 74.8396 821.834 74.8396Z" fill="#F7C537"/>
<path d="M793.791 79.2307C793.791 79.2307 799.514 77.8942 806.381 76.3669C812.104 75.0305 816.492 74.2668 816.492 74.2668L811.914 106.532H791.311L793.791 79.2307Z" fill="#507849"/>
<path d="M804.092 106.341C803.901 106.341 803.71 106.15 803.71 105.959L805.045 95.0768C805.045 94.8859 805.236 94.6949 805.427 94.6949C805.618 94.6949 805.808 94.8859 805.808 95.0768L804.473 105.959C804.473 106.15 804.282 106.341 804.092 106.341Z" fill="#F7C537"/>
<path d="M751.439 174.117L752.393 184.426H772.233V172.78L751.439 174.117Z" fill="#F77E6D"/>
<path d="M786.732 178.889L788.831 189.199L810.579 184.044L806.763 172.78L786.732 178.889Z" fill="#F77E6D"/>
<path d="M751.249 183.662C751.249 183.662 748.197 193.781 747.052 195.117C745.908 196.454 732.935 208.1 731.218 212.3C729.501 216.5 731.791 222.228 732.744 222.228C733.889 222.419 783.68 200.272 783.68 200.272L773.76 175.835L751.249 183.662Z" fill="#F2513B"/>
<path d="M782.917 113.978C782.917 113.978 754.302 107.105 746.48 119.132C738.659 131.16 749.532 177.362 749.532 177.362H775.859L782.917 113.978Z" fill="#AD4D40"/>
<path d="M748.387 190.917C748.387 190.917 758.88 195.881 757.544 197.218C756.209 198.554 741.901 202.372 741.52 200.654C741.138 199.127 746.671 191.49 748.387 190.917Z" fill="white"/>
<path d="M847.587 124.478C847.587 124.478 853.501 152.161 841.673 156.552C829.655 160.943 802.184 155.788 802.184 155.788L813.249 175.453L777.384 186.144C777.384 186.144 747.624 132.306 765.747 117.987C783.87 103.668 834.424 124.478 834.424 124.478H847.587Z" fill="#AD4D40"/>
<path d="M786.732 188.817C786.732 188.817 785.206 199.89 783.108 201.227C781.009 202.563 772.043 209.818 767.465 215.927C763.649 221.082 768.228 223.182 768.228 223.182L798.369 219.746L822.025 197.599L810.388 178.889L786.732 188.817Z" fill="#F2513B"/>
<path d="M784.634 195.69C784.634 195.69 795.126 200.845 793.79 202.181C792.455 203.518 778.147 207.145 777.766 205.618C777.384 203.9 782.917 196.263 784.634 195.69Z" fill="white"/>
<path d="M802.184 156.17C801.23 155.598 793.79 151.016 793.79 147.961C793.79 147.197 794.172 146.624 794.935 146.243C795.698 145.861 796.461 145.67 797.224 146.052C800.467 147.388 802.375 155.216 802.565 155.598C802.565 155.788 802.565 155.979 802.375 155.979C802.375 156.17 802.184 156.17 802.184 156.17ZM796.27 146.815C795.888 146.815 795.698 146.815 795.316 147.006C794.744 147.388 794.553 147.579 794.553 148.152C794.553 150.252 799.132 153.497 801.612 155.025C801.039 152.925 799.322 147.77 797.033 146.815C796.842 146.815 796.461 146.815 796.27 146.815Z" fill="white"/>
<path d="M763.268 75.7941C763.268 75.7941 762.314 68.3484 759.452 67.0119C756.972 65.8664 751.249 63.5754 750.677 65.6755C749.914 68.7302 755.064 69.8757 755.064 69.8757C755.064 69.8757 756.4 78.2761 759.643 78.6579C763.077 78.8488 763.268 75.7941 763.268 75.7941Z" fill="#F77E6D"/>
<path d="M762.123 79.8034C756.4 79.8034 755.637 72.9304 755.637 72.9304C755.637 72.7395 755.827 72.5486 756.018 72.5486C756.209 72.5486 756.4 72.7395 756.4 72.9304C756.4 73.1213 757.163 79.2307 762.123 79.2307C762.314 79.2307 762.504 79.4216 762.504 79.6125C762.504 79.6125 762.314 79.8034 762.123 79.8034Z" fill="black"/>
<path d="M772.233 176.026C772.042 176.026 772.042 176.026 771.852 175.835C771.852 175.644 763.839 163.425 760.215 140.897C756.59 119.132 775.858 113.214 776.048 113.023C776.239 113.023 776.43 113.023 776.43 113.214C776.43 113.405 776.43 113.596 776.239 113.596C776.048 113.596 757.544 119.323 760.978 140.515C764.602 162.852 772.424 175.071 772.615 175.071C772.805 175.262 772.615 175.453 772.424 175.644C772.424 176.026 772.233 176.026 772.233 176.026Z" fill="white"/>
</g>
<defs>
<clipPath id="clip0_582_15370">
<rect width="1054" height="639" fill="white"/>
</clipPath>
</defs>
</svg>
