<svg width="123" height="63" viewBox="0 0 123 63" fill="none" xmlns="http://www.w3.org/2000/svg">
<path d="M33.2566 19.521C33.4667 18.5755 33.7997 17.6501 33.8526 16.6736C33.9978 16.4795 34.0847 16.2484 34.1032 16.0071C34.5781 15.3381 35.1273 14.7245 35.7402 14.178C36.0447 13.9291 36.3865 13.7293 36.7532 13.5859C37.0457 13.5549 37.3585 13.6588 37.6402 13.4821C38.4851 13.5549 39.1963 14.0633 40.1128 14.3346C39.8732 13.8866 39.6755 13.5751 39.5293 13.2496C39.2787 12.6559 39.8218 11.7305 40.4629 11.6794C40.7866 11.6592 41.0153 11.8979 41.2239 12.1165C41.7778 12.7086 42.2882 13.3565 42.5387 14.1315C42.7379 14.7345 43.06 14.8275 43.5829 14.6291C43.7696 14.5578 43.9688 14.4942 44.1571 14.4214C44.3656 14.4012 44.585 14.4012 44.6784 14.1625C45.6805 14.0587 46.6826 14.0075 47.663 14.1935C49.051 14.4632 49.8851 15.4615 50.6584 16.5325C50.8032 16.7294 50.9401 17.1525 51.2311 16.6457C51.3348 16.6095 51.429 16.5506 51.5069 16.4734C51.5847 16.3961 51.6441 16.3025 51.6808 16.1993C52.9093 15.3087 54.2536 14.5885 55.6768 14.0587C55.9009 14.0792 56.1242 14.0119 56.2993 13.8711C57.9771 13.4075 59.761 13.5022 61.3799 14.1408C61.9121 14.3392 61.965 14.2865 62.0693 13.4449C62.4132 12.3955 62.7057 11.3244 63.5927 10.5556C63.7704 10.3889 63.9905 10.2737 64.2291 10.2223C65.127 10.0348 65.3666 10.2642 65.0959 11.1059C64.7613 12.1149 64.3972 13.1116 64.3023 14.1827C64.282 14.4214 64.2509 14.7438 64.5528 14.6291C65.4087 14.2974 66.3688 14.2974 67.1717 13.8091C67.3386 13.8026 67.5017 13.758 67.6484 13.6787C67.7952 13.5994 67.9217 13.4876 68.0182 13.3519C68.0805 13.341 68.1225 13.3193 68.1225 13.248V13.2604C69.3113 12.7411 70.4177 12.9799 71.4821 13.6045C71.8991 13.8525 72.3488 14.0509 72.7768 14.2695C72.9046 14.4463 73.0946 14.5686 73.3089 14.612C73.8816 15.2321 74.5538 15.7451 74.988 16.4829C75.2183 16.889 75.4268 17.3044 75.6555 17.723C75.7287 17.9307 75.8018 18.1492 75.8749 18.3569C76.0103 19.1784 76.2717 19.969 76.3138 20.8106H76.4694C76.6685 20.2805 76.8568 19.7395 77.0918 19.2203C77.4777 18.3058 77.8543 17.3804 78.9078 17.0053C78.9056 17.0499 78.9175 17.094 78.9417 17.1316C78.966 17.1691 79.0015 17.1981 79.0431 17.2145C77.582 18.4406 77.4264 20.2495 76.9875 21.9018C76.5285 23.6487 76.6639 25.4886 76.4133 27.2758C76.2982 28.0756 76.1939 28.877 76.0695 29.6768C76.0383 29.8954 75.9854 30.1418 75.7038 30.1976C75.3894 30.2667 75.061 30.2296 74.7701 30.0922C74.6021 29.9992 74.697 29.7915 74.7172 29.6272C74.9366 28.1826 75.156 26.7271 75.1669 25.2608C75.1763 22.9838 74.9786 20.7285 74.3889 18.515C74.19 17.7458 73.7736 17.0496 73.1891 16.5093C72.2033 15.5969 71.064 14.8645 69.8233 14.3454C69.3113 14.1284 68.8103 14.2524 68.331 14.4291C67.1624 14.8662 65.9408 15.1158 64.7302 15.3964C64.282 15.5002 64.1078 15.6862 64.1249 16.1714C64.1467 17.5664 64.1249 17.554 65.4709 17.4501C65.8163 17.4191 66.3159 17.2517 66.4419 17.6377C66.5679 18.0237 66.056 18.1771 65.7743 18.3538C64.4797 19.1443 63.0714 19.4977 61.5573 19.2373C60.4681 19.0513 59.5017 17.9973 59.5344 17.0022C60.0012 17.2517 60.4541 17.4811 60.9022 17.709C61.0842 17.8122 61.2767 17.8959 61.4764 17.9586C61.7052 18.0221 61.9977 18.1136 62.186 17.9384C62.3743 17.7633 62.144 17.523 62.0599 17.3184C61.8623 16.7991 61.716 16.269 61.7892 15.7188C61.8514 15.2398 61.6336 15.0429 61.2041 14.9174C59.4847 14.4323 57.6605 14.4577 55.9554 14.9902C55.1462 15.2388 54.3663 15.5735 53.629 15.9885C51.312 17.2781 50.4141 19.4187 50.0173 21.8615C49.6625 24.0548 50.0811 26.1644 50.7487 28.243C50.9136 28.7044 51.1574 29.1339 51.4692 29.5125C51.6466 29.7512 51.6357 29.9062 51.3136 29.9171C50.2072 29.9481 50.0827 30.2271 49.675 28.9297C48.5484 25.3646 48.7771 21.8414 50.0298 18.3693C50.1254 18.1531 50.1576 17.9143 50.1227 17.6805C50.0877 17.4468 49.987 17.2277 49.8322 17.0487C48.455 15.1359 47.0032 14.6167 44.4994 15.4057C44.1897 15.4849 43.8691 15.5132 43.5502 15.4894C43.2779 15.4894 43.0585 15.5095 43.0694 15.8629C43.0803 16.1233 43.0382 16.2892 43.4039 16.4349C43.8377 16.6297 44.329 16.6556 44.7811 16.5077C44.8439 16.4827 44.9113 16.4707 44.979 16.4725C45.0467 16.4743 45.1133 16.4898 45.1747 16.5181C45.2362 16.5464 45.2912 16.5868 45.3364 16.637C45.3817 16.6872 45.4161 16.7461 45.4377 16.81C45.5327 17.1324 45.1981 17.1107 45.0207 17.2145C44.5928 17.4749 44.1649 17.7664 43.7369 18.0361C42.4329 18.8684 41.1071 19.1583 39.73 18.1911C39.4901 18.002 39.2004 17.8863 38.8959 17.8578C38.4462 17.847 38.2999 17.4734 38.0183 17.2548C37.9954 17.238 37.9769 17.216 37.9641 17.1907C37.9513 17.1654 37.9446 17.1375 37.9446 17.1091C37.9446 17.0808 37.9513 17.0529 37.9641 17.0276C37.9769 17.0023 37.9954 16.9803 38.0183 16.9634C38.1646 16.8286 38.2688 16.7356 38.0183 16.61C37.914 16.5589 37.8316 16.455 37.8938 16.3403C37.9273 16.2938 37.9737 16.2581 38.0274 16.2377C38.0811 16.2173 38.1396 16.2131 38.1957 16.2256C38.6573 16.265 39.111 16.3694 39.5433 16.5356C39.7098 16.3279 39.3659 16.0706 39.6475 15.9652C39.8451 15.8924 39.9587 16.1311 40.1144 16.2132C40.3229 16.3186 40.396 16.8332 40.7617 16.4736C40.9811 16.2551 40.8659 15.601 40.5641 15.4754C39.5822 15.0817 38.6018 14.5919 37.5375 14.6554C36.4731 14.719 35.888 15.5855 35.4087 16.4008C34.9294 17.2161 34.8874 18.2407 34.7194 19.1769C34.2525 21.7654 34.0969 24.3431 34.626 26.9627C34.9035 28.4551 35.3155 29.9197 35.8569 31.3384C35.9923 31.6717 35.9409 31.8159 35.5861 31.8484C35.3987 31.8663 35.2133 31.901 35.0322 31.9523C34.5653 32.0654 34.2292 32.1073 34.4377 31.4113C34.5109 31.1726 34.3864 30.8502 34.3023 30.5898C33.5212 28.1892 33.1648 25.6717 33.2489 23.1496C33.2691 22.5296 33.1757 21.9964 32.4444 21.7995C32.0693 21.6957 31.9962 21.3097 32.0164 20.9563C32.0491 20.4913 31.8499 20.3131 31.394 20.3224C30.9381 20.3317 30.5273 20.2821 30.1102 20.2495C30.0262 20.5208 30.1834 20.6866 30.2658 20.8695C30.5955 21.6346 30.6579 22.4876 30.4432 23.2922C30.3187 23.7696 30.0682 24.0672 29.5563 24.0812C29.4128 24.0727 29.2712 24.1167 29.158 24.2049C29.0448 24.2931 28.9679 24.4194 28.9416 24.5601C28.6911 25.5785 28.2414 25.8281 27.2719 25.4018C26.9062 25.236 26.7817 25.2871 26.6775 25.6405C26.6216 25.8191 26.5443 25.9903 26.4472 26.1505C26.3445 26.3317 26.1911 26.4793 26.0057 26.5754C25.8204 26.6714 25.611 26.7117 25.403 26.6914C25.1914 26.6724 24.9928 26.5812 24.8408 26.4333C24.6889 26.2853 24.5928 26.0896 24.569 25.8792C24.4756 25.2251 24.2033 25.0283 23.5669 25.1042C22.9304 25.1802 22.6067 24.6671 22.8464 23.9913C23.03 23.4906 23.2805 23.0256 23.4968 22.5358C23.2043 22.4521 23.0067 22.618 22.8184 22.7544C22.2526 23.1333 21.7554 23.605 21.3479 24.1494C20.8577 24.8144 20.8359 25.3352 21.2747 26.0203C21.754 26.7953 21.754 26.7953 21.1191 27.4246C19.9925 28.5468 20.4313 30.2829 21.9968 30.9897C22.0372 31.0098 22.0792 31.0207 22.1212 31.0408C22.1103 31.0005 22.1103 30.9478 22.101 30.906C21.3914 30.0953 22.017 28.9932 22.9148 28.1826C22.9771 28.5887 22.8106 28.9312 22.7266 29.2676C22.6005 29.7667 22.7063 30.1511 23.2276 30.3697C23.6447 30.5464 24.0524 30.7339 24.4585 30.9215C24.5207 30.9525 24.5845 30.9835 24.625 30.9106C24.6359 30.8905 24.5939 30.8269 24.5736 30.7851C24.3433 30.4844 23.9994 30.2348 24.1659 29.7574C24.3854 29.1017 24.6468 28.4879 25.221 28.0617C25.3766 27.9485 25.512 28.0307 25.512 28.2384C25.512 28.4988 25.5026 28.7685 25.4808 29.0289C25.4497 29.5389 25.6894 29.8039 26.2122 29.8039C26.4518 29.8148 26.7024 29.7838 26.9327 29.8876C27.163 29.9915 27.3077 30.0953 27.3186 30.3232C27.3206 30.4279 27.2893 30.5306 27.2292 30.6166C27.1691 30.7026 27.0833 30.7676 26.984 30.8021C26.7247 30.9098 26.4559 30.9933 26.1811 31.0517C25.5851 31.1664 25.3455 31.5399 25.5587 32.1119C25.789 32.7319 26.3632 32.9846 26.8953 33.245C27.1147 33.3488 27.1661 33.1194 27.2283 32.9644C27.3637 32.6312 27.4898 32.2995 27.6469 31.9771C27.7605 31.7477 27.9581 31.5508 28.2305 31.6128C28.5028 31.6748 28.3238 31.9554 28.3861 32.1321C28.3908 32.1493 28.3908 32.1675 28.3861 32.1848C28.3954 33.4248 28.5837 33.1923 27.3622 33.4108C26.9738 33.4776 26.5906 33.5714 26.2153 33.6914C25.8605 33.8169 25.6302 33.6914 25.4373 33.4325C25.1867 33.0993 24.9253 32.7567 24.8631 32.3475C24.779 31.8174 24.4663 31.6624 23.9761 31.6206C23.0269 31.5368 22.9008 31.7027 23.2136 32.6172C23.4128 33.1799 23.8718 33.3566 24.362 33.5116C24.6655 33.6061 24.9845 33.6371 25.2801 33.9068C24.5394 34.0944 23.8796 34.3021 23.1732 34.4261C22.9521 34.4644 22.7247 34.4152 22.5396 34.289C22.3544 34.1627 22.2261 33.9694 22.1819 33.7503C21.9625 32.7428 21.2 32.1925 20.5216 31.5678C20.0665 31.1462 19.6968 30.6416 19.4323 30.0814C19.2767 29.7714 19.16 29.8225 19.0044 30.0504C18.8892 30.2162 18.785 30.4038 18.6698 30.5805C18.4411 30.9447 18.2637 31.2981 18.9624 31.2981C19.1927 31.2981 19.2129 31.464 19.2129 31.6624C19.2129 32.5041 18.2528 33.2419 17.4281 33.0435C17.3347 33.0233 17.2413 32.9923 17.2087 32.8993C17.1573 32.7443 17.2927 32.7118 17.386 32.6591C17.5852 32.5552 17.7937 32.4622 17.9914 32.3491C18.0639 32.3236 18.1243 32.2723 18.1611 32.205C18.1979 32.1377 18.2084 32.0593 18.1905 31.9848C18.1485 31.819 18.0023 31.7678 17.8451 31.7353C17.7246 31.7118 17.6001 31.7176 17.4823 31.7521C17.3645 31.7867 17.2568 31.8489 17.1682 31.9337C16.6765 32.3801 16.1661 32.7955 15.7164 33.2744C15.4994 33.4912 15.345 33.7622 15.2694 34.059C15.1938 34.3557 15.1999 34.6673 15.2869 34.9609C15.4425 35.5421 15.6323 36.1141 15.7879 36.6969C15.8408 36.9046 15.9342 37.1743 15.6635 37.289C15.3927 37.4037 15.3289 37.1015 15.2355 36.9465C14.0451 35.0337 14.4217 33.0373 16.2376 31.6655C16.3512 31.5818 16.5489 31.5306 16.5084 31.3431C16.4773 31.2082 16.2999 31.2175 16.1739 31.1772C14.9959 30.782 13.9409 30.1062 12.8034 29.6071C12.293 29.3885 11.9491 28.9312 11.5834 28.536C11.0512 27.9547 10.5501 27.3409 10.0382 26.7379C9.90968 26.601 9.82 26.4325 9.7783 26.2497C9.66315 25.7847 9.81876 25.6886 10.2451 25.8746C10.2488 25.8922 10.2563 25.9088 10.267 25.9233C10.2778 25.9377 10.2915 25.9497 10.3074 25.9583C11.1943 27.1751 12.1124 28.3701 13.4694 29.1188C12.9154 28.6197 12.3801 28.1097 11.8728 27.5595C11.3655 27.0092 10.8816 26.4372 10.3914 25.8746C10.3587 25.8343 10.3276 25.7816 10.2965 25.7397C9.99111 25.3455 9.59368 25.0316 9.13875 24.8252C9.08584 25.2406 9.56668 25.5429 9.30525 26.0001C8.39805 25.1895 7.59355 24.3478 7.1983 23.193C7.07226 22.8195 7.34302 22.2785 7.77094 22.0398C8.19887 21.8011 8.4494 22.0289 8.7046 22.3204C9.1123 22.7978 9.28969 23.4054 9.63826 23.9215C11.35 26.5194 13.6343 28.4941 16.317 30.0333C16.3974 30.0838 16.4811 30.1288 16.5675 30.1682C16.9332 30.3232 17.2569 30.6254 17.6568 30.6146C18.1236 30.5944 18.0847 30.0535 18.3353 29.7946C18.8254 29.2738 19.0666 28.598 19.4245 28.0167C20.047 26.9984 20.394 26.042 20.2384 24.8469C20.1543 24.2269 20.6025 23.7231 21.0304 23.2767C21.407 22.8815 21.8551 22.5591 22.1057 22.0599C22.3653 21.9986 22.5946 21.8476 22.753 21.6337C23.1918 21.4787 23.7754 21.457 24.0461 21.1454C24.3496 20.8029 23.9216 20.2728 23.9107 19.8155V19.1955C24.0057 18.9878 24.1099 18.7801 24.2033 18.5755C24.5379 18.2748 24.8615 17.9555 25.2163 17.6811C25.6956 17.3075 26.0301 17.3494 26.332 17.8578C26.6208 18.3172 26.8757 18.7969 27.0945 19.2931C27.261 19.6884 27.4913 19.8232 27.9084 19.8124C29.1532 19.7922 30.3701 19.4807 31.6119 19.428C32.0616 19.521 32.5315 19.5938 32.8225 20.0201C32.8536 20.3301 32.8536 20.6649 33.2084 20.9982V20.0511C33.1999 19.873 33.2161 19.6946 33.2566 19.521ZM27.8928 21.4136C28.0297 21.8181 27.7885 21.9948 27.4135 22.0165C27.163 22.0367 27.0276 21.8181 26.8922 21.6213C26.3289 20.7889 25.9835 19.8542 25.7018 18.8979C25.5773 18.4608 25.3688 18.3879 25.014 18.6685C24.6172 18.9785 24.4087 19.3753 24.5643 19.9085C24.6815 20.3218 24.8319 20.7251 25.014 21.1144C25.156 21.3785 25.2732 21.6551 25.3641 21.9406C25.4575 22.294 25.4575 22.6257 24.916 22.4289C24.8172 22.3915 24.7086 22.3887 24.608 22.4208C24.5074 22.4529 24.4207 22.518 24.362 22.6056C23.9923 23.0087 23.6959 23.4729 23.4859 23.9773C23.3708 24.2687 23.433 24.4036 23.7878 24.3307C24.2998 24.216 24.6328 23.8657 24.9564 23.4891C25.0716 23.3542 25.1867 23.2178 25.3844 23.2907C25.582 23.3635 25.5929 23.5402 25.6038 23.7169C25.6349 24.0083 25.4995 24.2687 25.4373 24.5385C25.375 24.8082 25.2381 25.0376 25.3221 25.3135C25.375 25.4902 25.4155 25.7087 25.6458 25.7196C25.8761 25.7304 25.9383 25.532 25.9695 25.3352C26.0317 24.9089 26.1251 24.4826 26.1671 24.0564C26.1982 23.8068 26.1671 23.5263 26.4596 23.4364C26.7522 23.3465 26.8253 23.6239 26.9498 23.8115C27.0265 23.9396 27.1214 24.056 27.2315 24.1571C27.3995 24.292 27.5769 24.5214 27.8165 24.3958C28.0562 24.2703 27.8788 24.0223 27.8788 23.8239C27.8788 23.689 27.8586 23.565 27.8477 23.4302C27.7854 22.8675 27.9628 22.7125 28.5261 22.8102C28.6737 22.843 28.8172 22.8919 28.954 22.9559C29.2466 23.1016 29.4209 23.0179 29.4862 22.6955C29.5359 22.4773 29.5604 22.2542 29.5594 22.0305C29.5174 21.2818 28.9743 20.7316 28.369 20.7905C28.0391 20.8556 27.7683 20.9548 27.8928 21.4136ZM64.9076 10.582C63.2597 11.8499 62.2778 15.8614 63.2799 17.027C63.2799 14.7608 64.1109 12.7442 64.9076 10.582ZM42.3053 16.6829C42.2944 16.548 42.2944 16.424 42.2742 16.2876C42.1279 14.9065 41.574 13.6898 40.771 12.5675C40.645 12.4001 40.4987 12.1413 40.2279 12.3273C39.9992 12.4823 40.0723 12.7442 40.1766 12.9473C40.3183 13.1882 40.4786 13.4177 40.6559 13.634C41.5226 14.6942 41.991 15.8474 41.5895 17.2409C41.5475 17.3866 41.4433 17.6036 41.6938 17.6563C41.9132 17.7075 42.1528 17.6873 42.2571 17.4176C42.3676 17.1711 42.3256 16.9324 42.3053 16.6829ZM8.28601 23.8967C8.31704 23.5778 8.28155 23.2559 8.18175 22.9512C8.13974 22.7854 8.09772 22.5978 7.85808 22.7017C7.6589 22.7947 7.57643 22.9512 7.70248 23.1667C7.85808 23.4085 7.96234 23.689 8.28601 23.8967Z" fill="white"/>
<path d="M94.9404 17.6703C95.0244 18.2113 95.1085 18.7414 95.1816 19.2824C95.2221 19.5924 95.3372 19.6978 95.6718 19.5924C96.1774 19.4243 96.7247 19.4281 97.2279 19.6032C97.6449 19.9458 98.1351 19.7272 98.5848 19.7892C99.618 20.0993 100.286 20.975 101.162 21.5253C101.343 21.7611 101.59 21.9384 101.871 22.0352C102.805 23.0118 103.217 24.2285 103.521 25.5073C103.603 25.8499 103.729 26.0793 104.053 26.2234C104.459 26.4001 104.878 26.5877 105.19 26.9411C105.377 27.1597 105.555 27.0667 105.691 26.8683C105.785 26.7334 105.869 26.5784 105.951 26.4327C106.213 25.9677 106.484 25.5585 107.041 25.3477C107.364 25.2237 107.615 24.9431 107.906 24.7277C108.398 24.3634 108.857 24.4471 109.096 25.0082C109.325 25.5166 109.429 26.0793 109.107 26.5784C108.835 26.9938 109.18 27.3364 109.148 27.6789C109.096 28.178 109.336 28.3129 109.702 28.5004C110.296 28.7918 110.203 29.1654 109.409 29.6227C109.764 29.9451 110.108 30.2427 110.442 30.5527C110.817 30.8952 111.163 31.2703 111.329 31.7695C111.6 32.6003 111.611 33.2962 110.881 34.0139C109.879 34.9904 108.731 35.7081 107.593 36.494C107.041 36.8691 106.801 36.1514 106.193 36.2243C106.919 35.6184 107.686 35.0628 108.488 34.5611C108.987 34.2552 109.443 33.8846 109.845 33.459C110.481 32.763 110.439 31.9927 109.719 31.3897C107.893 29.8939 106.066 28.3764 103.991 27.2217C103.687 27.0558 103.524 27.0667 103.51 27.4294C103.426 28.75 103.02 29.9978 102.576 31.2765C102.931 31.2858 103.326 31.2347 103.264 31.754C103.213 32.1291 102.642 32.5445 102.284 32.4499C102.176 32.4125 102.058 32.4139 101.951 32.4539C101.845 32.4938 101.755 32.5697 101.699 32.6685C101.47 33.0017 101.104 33.2094 100.896 33.5318C100.363 34.3627 99.6849 34.4262 98.8602 34.0821C98.6516 34.0088 98.4391 33.9467 98.2238 33.8961C98.9026 33.3883 99.5348 32.8213 100.113 32.2019C101.313 30.9433 101.918 29.4119 102.116 27.7068C102.262 26.5117 102.271 25.3585 101.73 24.1836C101.263 23.1652 100.395 22.6336 99.6118 21.9903C99.1948 21.6477 98.8338 21.2153 98.2767 21.0603C97.9219 20.9564 97.7025 20.9673 97.6542 21.3935C97.6122 21.634 97.5497 21.8704 97.4675 22.1003C97.3306 22.5375 97.0598 22.7963 96.5696 22.818C96.3985 22.8196 96.2315 22.8705 96.0887 22.9646C95.946 23.0587 95.8336 23.1919 95.7651 23.3481C95.5146 23.8364 94.9731 23.9185 94.5654 23.545C94.0986 23.1187 94.1063 23.1187 93.8869 23.7325C93.7516 24.1169 93.6053 24.4704 93.0949 24.4905C92.5845 24.5107 92.2702 24.2626 92.0819 23.8364C91.9465 23.5264 91.7893 23.3714 91.4143 23.4303C91.1638 23.4721 90.893 23.3993 90.6207 23.3791C90.4298 23.3716 90.2447 23.3112 90.0864 23.2047C89.9281 23.0982 89.8027 22.9498 89.7244 22.7762C89.5563 22.4321 89.8691 22.2352 90.006 21.9748C90.0994 21.7888 90.4651 21.6741 90.2877 21.4354C90.1936 21.3135 90.0618 21.226 89.9126 21.1865C89.7635 21.147 89.6054 21.1576 89.463 21.2168C88.4826 21.6214 87.5848 22.1468 86.9997 23.0986C86.4784 23.9511 86.2216 24.7199 86.9577 25.6344C87.4639 26.2973 87.8557 27.0396 88.1169 27.8308C88.1372 27.9037 88.1792 28.0075 88.2305 28.0184C88.9712 28.1222 88.6974 28.6942 88.6164 29.0367C88.4608 29.7746 88.3457 30.5124 88.2212 31.2517C88.1574 31.6253 87.9707 31.771 87.6159 31.7493C87.1662 31.7183 87.3047 31.3757 87.3436 31.1572C87.6548 29.3902 87.1459 27.8308 86.2372 26.3242C85.6957 25.4298 85.288 24.4642 85.33 23.3621C85.372 22.2073 85.246 21.0649 84.7776 20.0047C84.4975 19.3351 84.0725 18.7354 83.5329 18.2483C82.9933 17.7612 82.3525 17.3987 81.656 17.1867C81.4273 17.1139 81.239 17.1557 81.239 17.458C81.239 17.7897 81.3542 18.233 80.8749 18.247C80.3956 18.2609 80.1124 17.8936 79.977 17.4471C79.9406 17.2252 79.8388 17.0191 79.6845 16.855C79.6845 16.7713 79.6736 16.6783 79.6736 16.5838C80.1855 15.8661 80.1964 14.9624 80.6072 14.1936C81.2655 12.9768 82.1524 12.0933 83.5296 11.7399C84.0618 11.6051 84.2703 11.7089 84.1971 12.2592C84.0929 13.1226 83.8626 13.9441 83.1857 14.5842C82.694 15.0415 82.2038 15.5143 81.7245 15.9979C81.5782 16.1436 81.4008 16.3079 81.4942 16.528C81.5876 16.7481 81.849 16.6737 82.0482 16.683C82.2567 16.7558 82.4761 16.8271 82.6846 16.9C83.6338 17.3789 84.2812 18.1788 84.9799 18.9274C84.9827 19.0377 85.014 19.1453 85.0707 19.2401C85.1274 19.3348 85.2076 19.4134 85.3035 19.4684C85.7569 20.6018 86.0141 21.8036 86.0645 23.0226C86.2101 22.8466 86.3462 22.6629 86.4722 22.4724C86.9623 21.6725 87.6937 21.1734 88.5589 20.8402C88.8312 20.7363 89.049 20.6325 89.1222 20.2992C89.2062 19.9365 89.5408 19.8001 89.9002 19.7272C90.1912 19.8001 90.4526 19.6141 90.7343 19.6559C91.7987 19.8001 92.362 19.27 92.6125 18.3043C93.1377 17.8552 93.7587 17.5313 94.4285 17.3572C94.5879 17.4787 94.7595 17.5837 94.9404 17.6703ZM89.922 20.4775C90.0045 20.6852 90.1196 20.6852 90.2332 20.7162C90.7125 20.82 91.1933 20.9239 91.6726 21.0262C91.8282 21.0572 91.9652 21.1083 92.0072 21.285C92.0239 21.3693 92.0138 21.4567 91.9784 21.535C91.943 21.6133 91.884 21.6787 91.8096 21.7221C91.7037 21.795 91.5684 21.8477 91.4641 21.919C91.1933 22.1174 90.6191 22.2631 90.8074 22.5948C90.9957 22.9265 91.517 22.7498 91.8718 22.5545C91.892 22.5437 91.9029 22.5328 91.9231 22.5328C92.2779 22.305 92.4771 22.4088 92.5456 22.8134C92.5658 22.9389 92.586 23.0738 92.6078 23.1978C92.6498 23.469 92.723 23.7387 93.056 23.7589C93.3485 23.7806 93.4839 23.5512 93.5882 23.3233C93.6509 23.1659 93.6963 23.0022 93.7235 22.8351C93.7656 22.6475 93.61 22.3871 93.8605 22.2724C94.111 22.1577 94.3273 22.336 94.528 22.4708C95.1847 22.9281 95.2796 22.8971 95.4352 22.0864C95.5395 21.5764 95.7387 21.4943 96.1448 21.826C96.2911 21.9407 96.4265 22.0755 96.5619 21.888C96.6747 21.7244 96.7493 21.5377 96.7803 21.3417C96.8112 21.1456 96.7978 20.9451 96.7408 20.7549C96.7187 20.6515 96.6585 20.5602 96.5721 20.4988C96.4857 20.4374 96.3793 20.4104 96.274 20.4232C95.8881 20.4434 95.5115 20.5379 95.3232 20.9223C95.1878 21.192 95.1147 21.5253 94.7008 21.4106C94.3351 21.3067 94.346 20.9626 94.3149 20.6728C94.2084 19.9255 94.2331 19.1656 94.388 18.4268C94.4285 18.2392 94.5234 17.9695 94.1686 17.9912C93.4481 18.0222 92.7681 18.9987 92.8646 19.7055C92.9268 20.1845 93.291 20.5379 93.291 21.0153C93.291 21.1192 93.333 21.254 93.1774 21.2757C93.1308 21.2801 93.0842 21.2691 93.0445 21.2445C93.0049 21.2198 92.9745 21.1829 92.9579 21.1393C92.857 20.8737 92.6695 20.6494 92.4255 20.5025C92.1814 20.3555 91.895 20.2943 91.6119 20.3287C91.0486 20.3628 90.4744 20.2589 89.922 20.4775ZM80.5403 17.1092C80.7488 16.9635 80.7177 16.714 80.7909 16.5171C81.0305 15.8212 81.3744 15.2182 82.0108 14.8012C82.8262 14.2711 83.2946 13.4915 83.6292 12.6188C83.6914 12.4638 83.8906 12.2762 83.6805 12.1104C83.4705 11.9445 83.2946 12.1414 83.1281 12.2452C81.4273 13.2946 80.794 14.9578 80.447 16.8085C80.4292 16.8621 80.4286 16.9199 80.4454 16.9738C80.4621 17.0277 80.4953 17.075 80.5403 17.1092ZM106.326 27.4526C106.326 27.6712 106.535 27.9517 106.859 28.1377C107.284 28.3803 107.751 28.5427 108.236 28.6167C108.351 28.6368 108.475 28.8244 108.559 28.6275C108.622 28.4725 108.455 28.409 108.34 28.347C107.777 28.0556 107.766 27.6185 108.005 27.1194C108.142 26.828 108.267 26.5381 108.393 26.2467C108.453 26.1097 108.498 25.9668 108.528 25.8204C108.551 25.7477 108.549 25.6696 108.522 25.5982C108.496 25.5268 108.446 25.466 108.382 25.4252C108.205 25.3415 108.11 25.498 108.016 25.6127C107.839 25.8204 107.808 26.0901 107.714 26.3304C107.621 26.5706 107.526 26.7458 107.223 26.6512C106.65 26.4745 106.347 26.6838 106.326 27.4526Z" fill="white"/>
<path d="M63.8855 31.9322C62.0695 31.8594 59.2001 31.9214 56.3306 32.0159C53.8051 32.0981 51.2795 32.2345 48.7649 32.481C44.2522 32.9274 39.7395 33.4265 35.2813 34.2681C32.0135 34.8882 28.7286 35.4942 25.5044 36.3467C24.5707 36.587 23.6262 36.773 22.7034 37.0024C22.3922 37.0753 22.1604 37.0226 22.0561 36.7312C21.9518 36.4397 22.2117 36.2847 22.4311 36.2119C23.4021 35.8476 24.4354 35.7128 25.4484 35.4539C29.4942 34.4138 33.5976 33.6032 37.7306 32.9475C40.376 32.5321 43.0307 32.2314 45.6916 31.909C47.5589 31.6796 49.4496 31.5757 51.3278 31.4207C56.5142 31.0038 61.7007 31.0348 66.8887 31.1386C69.8624 31.2022 72.847 31.399 75.8098 31.7323C77.7829 31.9508 79.7545 32.1059 81.723 32.3663C84.5722 32.7615 87.4214 33.2188 90.2488 33.7613C93.7858 34.4371 97.2824 35.2276 100.768 36.1313C100.932 36.175 101.087 36.2457 101.227 36.3405C101.297 36.3928 101.349 36.4665 101.373 36.5504C101.397 36.6344 101.394 36.7239 101.362 36.8055C101.341 36.879 101.292 36.9418 101.227 36.9818C101.161 37.0219 101.083 37.0364 101.008 37.0226C100.764 37.0153 100.523 36.9804 100.287 36.9187C95.9675 35.7965 91.6021 34.8613 87.1911 34.1131C83.1618 33.427 79.116 32.9036 75.0536 32.543C71.6706 32.2345 68.3125 32.0361 63.8855 31.9322Z" fill="white"/>
<path d="M100.858 53.6157C99.8982 53.377 98.9474 53.1275 97.9889 52.9197C96.4639 52.5865 94.9514 52.2129 93.4171 51.9215C91.7692 51.6115 90.1415 51.1945 88.492 50.9233C84.4462 50.2475 80.3832 49.5933 76.2829 49.2399C73.7465 49.0214 71.2116 48.8137 68.6581 48.6881C65.7373 48.5533 62.8149 48.4603 59.8926 48.5223C57.7218 48.5641 55.5511 48.5951 53.3912 48.73C50.5747 48.918 47.7608 49.1609 44.9494 49.4585C41.6816 49.801 38.4481 50.342 35.2238 50.8923C32.0307 51.4441 28.8439 52.0362 25.7068 52.867C24.8089 53.1073 23.911 53.315 23.0147 53.532C22.8842 53.5608 22.7515 53.5785 22.6179 53.5847C22.3565 53.6049 22.1278 53.5646 22.0437 53.2515C21.9597 52.9383 22.232 52.8577 22.4296 52.7942C23.2552 52.5303 24.0947 52.3119 24.9443 52.1401C28.4299 51.3805 31.8954 50.5389 35.4012 49.9251C40.1178 49.0942 44.8763 48.544 49.6551 48.1177C55.7814 47.5659 61.9171 47.5457 68.0527 47.7534C73.0322 47.9193 77.9884 48.4386 82.9243 49.1252C88.8964 49.9809 94.8153 51.1711 100.653 52.6903C100.78 52.7221 100.906 52.7604 101.029 52.805C101.269 52.898 101.404 53.0546 101.331 53.3352C101.275 53.5847 101.045 53.5615 100.858 53.6157Z" fill="white"/>
<path d="M36.951 43.201C36.9308 43.9078 36.9308 44.3852 36.5869 44.8006C36.3675 45.061 36.5138 45.3726 36.6383 45.6531C36.9495 46.3599 37.2436 47.0667 37.5563 47.7736C37.7446 48.1905 37.7244 48.5021 37.1611 48.5486C37.1419 48.5501 37.1235 48.5571 37.1082 48.5687C35.7824 48.8601 35.7824 48.8601 35.2922 47.6387C35.0946 47.1411 34.8534 46.6513 34.6356 46.1522C34.3539 45.5183 33.8933 45.9554 33.5074 45.9662C33.1215 45.9771 33.1526 46.2886 33.2055 46.5475C33.3207 47.2124 33.4249 47.879 33.5914 48.5331C33.6957 48.9593 33.5805 49.1779 33.1744 49.2817C31.7552 49.6352 31.7132 49.646 31.5778 48.9903C31.055 46.4963 30.5555 43.9915 30.0435 41.4959C29.9081 40.8511 29.793 40.2078 29.6467 39.563C29.5534 39.1678 29.6996 38.9709 30.0949 38.8872C31.4724 38.5647 32.866 38.3148 34.2699 38.1385C35.2502 38.0347 36.0749 38.5338 36.3146 39.4483C36.6251 40.6807 36.8379 41.9354 36.951 43.201ZM34.7818 42.9917C34.718 42.6181 34.6356 42.1717 34.5515 41.7346C34.2808 40.1133 34.0847 39.9986 32.485 40.4667C32.1925 40.5504 32.0882 40.6945 32.152 40.9968C32.3185 41.8075 32.4633 42.6181 32.6111 43.4288C32.6422 43.5947 32.6733 43.7621 32.8507 43.8442C33.0904 43.9589 34.5313 43.6365 34.6869 43.4397C34.7318 43.375 34.7633 43.3021 34.7796 43.2252C34.7959 43.1483 34.7967 43.0689 34.7818 42.9917Z" fill="white"/>
<path d="M45.5187 44.6548C45.5405 45.8949 45.4565 46.6823 44.694 47.2232C44.332 47.4624 43.9083 47.5921 43.474 47.5968C42.6182 47.6495 41.7732 47.9611 40.9065 47.7952C40.0397 47.6294 39.4562 47.0574 39.3301 46.1832C39.0065 43.917 38.5521 41.6881 38.2969 39.4064C38.2658 39.1042 38.1724 38.8236 38.1195 38.5229C38.0884 38.3152 38.0261 38.0967 38.079 37.9029C38.3296 36.9373 39.2057 37.4255 39.7799 37.2178C40.1346 37.0923 40.3432 37.3837 40.3945 37.7681C40.7182 40.1691 41.0418 42.5608 41.3655 44.9618C41.4589 45.6159 41.6051 45.7089 42.4548 45.6267C43.1644 45.5539 43.4242 45.3167 43.3511 44.7432C43.1426 43.018 42.892 41.282 42.6835 39.5553C42.5995 38.8701 42.5793 38.1742 42.4221 37.4984C42.4034 37.4257 42.4032 37.3496 42.4214 37.2768C42.4396 37.204 42.4757 37.1369 42.5264 37.0814C42.85 36.6768 44.0513 36.4893 44.4886 36.7714C44.6971 36.9063 44.6971 37.1047 44.7282 37.3124C44.8963 38.8624 45.0628 40.4 45.2293 41.9485C45.3304 42.9824 45.4565 44.0209 45.5187 44.6548Z" fill="white"/>
<path d="M74.1012 35.8506C74.9679 35.9343 75.6884 35.9234 76.3762 36.142C77.3254 36.4334 77.7953 37.0147 77.8062 37.9927C77.8062 38.4283 77.7533 38.8545 77.744 39.2917C77.7331 39.5831 77.5884 39.6869 77.3052 39.6559C77.0655 39.6249 76.815 39.6141 76.5754 39.5939C75.6417 39.5102 75.6417 39.5102 75.5515 38.5647C75.5203 38.2113 75.3647 38.0036 74.999 37.9927C74.9259 37.9927 74.8528 37.9819 74.7687 37.9819C73.4756 37.8982 73.4756 37.9199 73.4227 39.2297C73.4025 39.6342 73.5581 39.8109 73.9036 39.9365C74.7796 40.2279 75.5935 40.6541 76.4804 40.9347C77.4141 41.2245 77.6179 41.6105 77.5137 42.5979C77.4203 43.4395 77.3363 44.2812 77.2025 45.1136C77.0142 46.1986 76.3669 46.7349 75.262 46.7861C74.224 46.8287 73.1855 46.7132 72.1825 46.4435C71.6301 46.2978 71.0357 45.5135 70.9828 44.864C70.9672 44.6944 70.9672 44.5237 70.9828 44.3541C71.045 43.9386 70.7634 43.3667 71.2131 43.1481C71.7344 42.8986 72.3599 43.0443 72.9341 43.159C73.2453 43.221 73.1333 43.5217 73.1535 43.7309C73.1738 44.0409 73.0493 44.4161 73.4461 44.5618C73.9471 44.7493 74.4684 44.8423 74.9804 44.5726C75.0396 44.5419 75.0894 44.4956 75.1242 44.4388C75.159 44.382 75.1776 44.3168 75.178 44.2502C75.1889 44.1153 75.178 43.9898 75.1982 43.8549C75.3663 42.3266 75.3756 42.7839 74.0094 42.1809C73.2578 41.8492 72.4642 41.5888 71.6924 41.3082C71.3485 41.1842 71.2131 40.9347 71.1913 40.5813C71.1602 39.5831 71.2753 38.5848 71.3376 37.5975C71.3998 36.652 72.0783 36.0273 73.0384 35.9343C73.4134 35.8816 73.8304 35.8723 74.1012 35.8506Z" fill="white"/>
<path d="M62.9983 40.231C62.9983 38.9011 63.0092 37.5603 62.9874 36.2288C62.9765 35.7514 63.143 35.5127 63.6457 35.5639C63.8154 35.5801 63.9863 35.5801 64.1561 35.5639C65.2453 35.522 65.2936 35.5639 65.2733 36.6877C65.2422 38.9011 65.2111 41.1254 65.1784 43.3389C65.1691 44.1294 65.3558 44.3061 66.2023 44.2952C66.9633 44.2859 67.1624 44.0674 67.1936 43.3296C67.2558 41.0417 67.3492 38.7445 67.413 36.4582C67.4223 35.8863 67.6837 35.6367 68.247 35.6677C68.3588 35.6667 68.4705 35.66 68.5816 35.6476C69.5511 35.6367 69.6351 35.6894 69.5822 36.6659C69.4468 39.2235 69.4779 41.7811 69.271 44.3278C69.1574 45.7228 68.5723 46.3025 67.164 46.3537C66.109 46.3955 65.0555 46.4994 64.0518 46.0313C63.5196 45.7817 63.2177 45.4392 63.1026 44.8672C63.0345 44.4574 63.0033 44.0424 63.0092 43.6272C62.9983 42.4848 63.0092 41.361 62.9983 40.2279V40.231Z" fill="white"/>
<path d="M86.8644 43.6892C87.1149 43.5435 87.1243 43.3451 87.1974 43.1793C87.9396 41.2154 88.6695 39.2406 89.4319 37.2752C89.8583 36.1731 90.7453 35.8616 91.8206 36.4025C92.082 36.5265 92.0509 36.7125 91.9762 36.9218C91.777 37.4317 91.5794 37.9402 91.3709 38.4393C90.14 41.4432 88.8982 44.4472 87.6767 47.462C87.4775 47.9611 87.1756 48.096 86.6745 48.034C85.2351 47.8464 85.2741 47.8573 85.1309 46.4328C84.8897 43.8659 84.6189 41.3084 84.3528 38.7415C84.2595 37.827 84.1754 36.9109 84.093 35.9871C84.0401 35.3671 84.1754 35.2384 84.7917 35.3206C86.284 35.519 86.2637 35.519 86.4193 37.0148C86.6559 39.2081 86.6979 41.4339 86.8644 43.6892Z" fill="white"/>
<path d="M102.663 45.8716C102.663 47.5038 102.652 49.1468 102.674 50.7774C102.674 51.1836 102.559 51.3386 102.142 51.2037C101.996 51.1619 101.849 51.1526 101.703 51.1216C100.681 50.8611 100.681 50.8611 100.681 49.7901C100.681 48.6477 100.555 48.502 99.4359 48.3454C99.0425 48.2989 98.6543 48.2154 98.2767 48.0959C97.9219 47.9812 97.7445 48.1269 97.5982 48.4059C97.4939 48.6043 97.4006 48.812 97.2963 49.0089C96.8575 49.9032 96.8575 49.9032 95.8663 49.7374C94.8237 49.5607 94.8237 49.5607 95.303 48.5935C96.6801 45.8189 98.0681 43.0428 99.4251 40.2574C99.6865 39.7164 100.01 39.5289 100.583 39.7056C100.997 39.8322 101.419 39.9331 101.846 40.0078C102.368 40.1008 102.576 40.3814 102.576 40.9022C102.567 42.5545 102.576 44.2177 102.576 45.87L102.663 45.8716ZM100.577 42.8661L100.421 42.8351C100.055 43.5729 99.6911 44.3107 99.3317 45.0392C98.6844 46.349 98.6844 46.349 100.11 46.5986C100.128 46.6004 100.146 46.6074 100.161 46.6187C100.423 46.6916 100.569 46.5986 100.58 46.3273C100.586 45.1756 100.577 44.0209 100.577 42.8661Z" fill="white"/>
<path d="M50.573 36.0461C50.8967 36.0461 51.2094 36.0259 51.5331 36.0461C51.9703 36.0755 52.3826 36.2591 52.6963 36.5638C53.0099 36.8686 53.2044 37.2747 53.2448 37.7093C53.318 38.3014 53.3273 38.9043 53.3693 39.5073C53.3866 39.5798 53.3862 39.6554 53.368 39.7277C53.3499 39.8 53.3146 39.8669 53.265 39.9227C53.0036 40.163 51.6576 40.1723 51.3977 39.9336C51.3442 39.8815 51.3033 39.8181 51.278 39.748C51.2526 39.6779 51.2436 39.6031 51.2515 39.529C51.2515 39.2887 51.2515 39.0392 51.2297 38.8005C51.1783 38.2502 50.9589 38.0735 50.4158 38.1247C50.2696 38.1355 50.114 38.1665 49.9677 38.1665C49.0076 38.2192 48.9033 38.3324 48.9967 39.2794C49.143 40.8295 49.269 42.3873 49.4044 43.9295C49.4775 44.7619 49.6129 44.8751 50.4158 44.8131C51.6607 44.7092 51.7525 44.6364 51.544 43.3576C51.4491 42.7965 51.6576 42.6508 52.1166 42.5826C52.1909 42.5701 52.2642 42.5525 52.3361 42.5299C53.4253 42.3129 53.5685 42.4167 53.5996 43.4971C53.6198 44.0163 53.693 44.5465 53.5996 45.0766C53.444 46.0066 52.9305 46.5739 51.9813 46.6995C51.0886 46.8496 50.1833 46.9119 49.2783 46.8855C48.2669 46.8343 47.7129 46.4205 47.4624 45.43C47.1403 44.1621 47.2025 42.8523 47.0251 41.5735C46.8897 40.6078 46.8259 39.6297 46.7435 38.6641C46.6174 37.2086 47.2959 36.3251 48.757 36.1484C49.3598 36.0784 49.9662 36.0442 50.573 36.0461Z" fill="white"/>
<path d="M27.8618 44.4472C27.9256 44.8734 27.6642 45.092 27.3094 45.185C26.673 45.3617 26.0365 45.5291 25.3892 45.65C24.9302 45.7321 24.857 45.9507 24.9504 46.3568C25.2616 47.6666 25.5728 48.9919 25.884 50.2954C25.9681 50.6178 25.9152 50.7605 25.5806 50.8783C23.9327 51.4394 23.9529 51.4394 23.525 49.7653C22.8154 47.0001 22.0856 44.2456 21.376 41.4912C21.25 41.003 21.1457 40.5039 20.9901 40.0264C20.8547 39.6312 20.917 39.3398 21.4492 39.2251C23.2122 38.8407 24.9659 38.3943 26.729 37.9773C27.3763 37.8223 27.4697 37.8951 27.6051 38.5493C27.6378 38.695 27.658 38.8407 27.7 38.9864C27.9194 39.8497 27.8867 39.89 26.9795 40.0884C26.0194 40.2962 25.0702 40.5349 24.121 40.7426C23.7755 40.8154 23.6402 40.9301 23.7444 41.3145C23.9291 41.9257 24.0792 42.5467 24.1941 43.1746C24.2766 43.6737 24.538 43.7264 24.9551 43.6225C25.6133 43.4675 26.2808 43.3513 26.9375 43.1746C27.4386 43.0397 27.6378 43.28 27.742 43.6954C27.7996 43.9279 27.8214 44.1883 27.8618 44.4472Z" fill="white"/>
<path d="M58.156 35.5701C59.0228 35.5701 59.888 35.5809 60.7656 35.5608C61.2137 35.5499 61.4129 35.7158 61.4129 36.1808C61.4223 37.6053 61.4332 37.6146 60.0031 37.6363C59.4616 37.6472 59.2251 37.7913 59.2624 38.385C59.3464 40.786 59.3978 43.1978 59.4398 45.5989C59.4507 46.3987 59.4289 46.3987 58.6151 46.4188C57.2908 46.4514 57.2908 46.4514 57.2488 45.1199C57.1757 42.8646 57.0932 40.6093 57.0185 38.354C57.0092 37.875 56.7898 37.734 56.3401 37.7712C54.4525 37.8952 54.9738 38.0409 54.7544 36.3994C54.6922 35.9344 54.9427 35.7437 55.3769 35.7344H58.1529L58.156 35.5701Z" fill="white"/>
<path d="M95.4632 39.4685C95.2127 40.7163 94.9622 41.9734 94.7116 43.2211C94.3569 45.03 93.9709 46.8281 93.6566 48.637C93.5741 49.1469 93.3236 49.2089 92.9268 49.1562C92.6156 49.1144 92.3043 48.9904 91.9931 48.9702C91.45 48.9284 91.3878 48.6059 91.4812 48.1952C92.1487 45.1075 92.5704 41.978 93.182 38.895C93.2754 38.43 93.4932 38.2394 93.96 38.3541C94.2215 38.4161 94.472 38.4781 94.7381 38.5308C95.2859 38.5959 95.5442 38.8966 95.4632 39.4685Z" fill="white"/>
<path d="M82.68 16.9233L82.0436 16.7047C82.2723 16.2475 82.7205 16.0072 83.0862 15.6848C84.9223 14.0743 86.7803 12.484 88.6072 10.8797C89.3852 10.193 90.1415 9.51723 90.9413 8.87241C91.0035 8.82126 91.0455 8.76856 91.1078 8.72671C91.3163 8.60271 91.5575 8.52986 91.7131 8.74841C91.8687 8.96697 91.7442 9.13282 91.5466 9.30952C90.0014 10.6193 88.478 11.9601 86.9546 13.2807C85.6615 14.4029 84.3466 15.4941 83.1142 16.6799C82.9801 16.7785 82.8343 16.8603 82.68 16.9233Z" fill="white"/>
<path d="M32.7357 20.0311C32.4431 19.6141 31.9748 19.5413 31.525 19.4374C31.2014 19.1057 30.7734 18.929 30.3782 18.7415C29.0726 18.1385 27.8215 17.4627 26.558 16.7977C25.1575 16.0599 23.7088 15.3639 22.3425 14.5424C22.1029 14.3967 21.8415 14.251 22.0313 13.9395C22.2212 13.6279 22.4795 13.8356 22.6771 13.9395C25.5683 15.4368 28.4595 16.9326 31.3383 18.4501C31.9856 18.7942 32.6859 19.0437 33.2585 19.5103C33.2181 19.687 33.1761 19.8745 33.1231 20.0512C32.9971 20.0512 32.8711 20.0404 32.7357 20.0311Z" fill="white"/>
<path d="M98.5722 19.7907C98.1241 19.7287 97.6386 19.9457 97.2153 19.6047C97.5265 19.2947 97.9358 19.1986 98.3046 19.0328C101.269 17.7338 104.24 16.4344 107.216 15.1344C107.436 15.0414 107.683 14.9794 107.906 14.8957C108.094 14.8337 108.281 14.7609 108.372 15.0104C108.464 15.26 108.351 15.4367 108.111 15.5405C107.058 15.9978 106.013 16.4706 104.96 16.9123C102.915 17.7958 100.858 18.6794 98.8134 19.5629C98.7387 19.6249 98.6656 19.7287 98.5722 19.7907Z" fill="white"/>
<path d="M51.6965 16.1947C51.6602 16.2978 51.6011 16.3915 51.5235 16.4688C51.4459 16.546 51.3519 16.6049 51.2483 16.6411C50.2882 14.9888 49.3172 13.3473 48.4303 11.6531C47.7938 10.4472 47.1154 9.26139 46.4587 8.05546C46.35 7.88139 46.2588 7.69708 46.1864 7.5052C46.135 7.3378 46.0308 7.10994 46.2813 7.01694C46.3776 6.97537 46.4859 6.97039 46.5857 7.00295C46.6855 7.03551 46.7698 7.10335 46.8228 7.19364C46.8948 7.30457 46.9543 7.42309 47.0002 7.54705C48.2109 9.94805 49.5678 12.2654 50.8718 14.6044C51.1534 15.1205 51.4148 15.6646 51.6965 16.1947Z" fill="white"/>
<path d="M24.1193 18.5957C24.026 18.8034 23.9201 19.0111 23.8268 19.2157C22.1882 18.5399 20.5808 17.8021 18.922 17.1572C17.702 16.6783 16.5225 16.0862 15.3227 15.5561C15.0924 15.4522 14.9882 15.3065 15.0722 15.0678C15.1562 14.8291 15.3959 14.8384 15.5935 14.9221C16.3031 15.2135 17.0235 15.5142 17.7331 15.8258C19.8598 16.7455 21.9885 17.6688 24.1193 18.5957Z" fill="white"/>
<path d="M62.0883 13.4511C61.984 14.2819 61.9327 14.3346 61.4005 14.1471C61.4114 10.7277 61.4114 7.30679 61.4207 3.88741C61.4207 3.74171 61.4207 3.5867 61.4316 3.441C61.4318 3.40775 61.4387 3.37488 61.4522 3.34445C61.4656 3.31401 61.4852 3.28666 61.5098 3.26412C61.5343 3.24157 61.5633 3.2243 61.5948 3.2134C61.6263 3.2025 61.6598 3.19819 61.6931 3.20075C61.8596 3.19145 61.9949 3.2426 62.0167 3.43015C62.0385 3.61771 62.0261 3.77271 62.0261 3.94011C62.0261 6.91308 62.0261 9.8752 62.037 12.8482C62.0276 13.045 61.9763 13.2605 62.0883 13.4511Z" fill="white"/>
<path d="M75.8752 18.3461C75.802 18.1383 75.7289 17.9198 75.6558 17.7121L76.815 16.3403C78.0682 14.843 79.3131 13.3446 80.5497 11.8452C80.727 11.6375 80.9044 11.3988 81.1954 11.6158C81.53 11.8654 81.2374 12.0948 81.0912 12.2823C80.0019 13.6123 78.88 14.9174 77.7736 16.2427C77.2725 16.8456 76.7715 17.4486 76.2595 18.0407C76.1668 18.1802 76.0323 18.2871 75.8752 18.3461Z" fill="white"/>
<path d="M73.3184 14.6152C73.1039 14.5711 72.9139 14.4483 72.7863 14.2711C74.0311 12.0158 75.2605 9.76045 76.5116 7.50515C76.6376 7.27575 76.7528 6.80764 77.134 7.01689C77.5153 7.22615 77.2274 7.5873 77.0811 7.88956C76.4135 9.21019 75.6215 10.4673 74.943 11.7879C74.4357 12.7536 73.9658 13.7409 73.3184 14.6152Z" fill="white"/>
<path d="M85.2988 19.4901C85.2037 19.4341 85.1242 19.3553 85.0676 19.2607C85.0111 19.1662 84.9793 19.0591 84.9751 18.9491C85.3501 18.5957 85.7998 18.357 86.22 18.0873C87.7216 17.1201 89.2139 16.1529 90.7171 15.1872C90.9987 14.9996 91.4266 14.7222 91.6149 15.0322C91.8235 15.3654 91.3753 15.5731 91.0921 15.7591C89.2123 17.0674 87.2703 18.3152 85.2988 19.4901Z" fill="white"/>
<path d="M94.9405 17.6703C94.7631 17.5773 94.5857 17.4734 94.4083 17.3804C94.5342 17.2169 94.6996 17.0879 94.8892 17.0053L100.586 14.0122C100.858 13.8774 101.233 13.5968 101.433 13.9285C101.661 14.3129 101.222 14.5005 100.931 14.657C99.1679 15.5809 97.3971 16.5021 95.619 17.4207C95.4013 17.5251 95.1741 17.6087 94.9405 17.6703Z" fill="white"/>
<path d="M37.6406 13.4822C37.3589 13.6589 37.0462 13.555 36.7536 13.586C35.918 12.6405 34.8754 11.9228 33.9526 11.0812C33.296 10.4983 32.6268 9.92638 31.9702 9.33427C31.7819 9.16842 31.5936 8.92816 31.7928 8.70031C31.9919 8.47245 32.314 8.56546 32.5023 8.76231C34.0149 10.3635 35.862 11.6113 37.4072 13.1706C37.4834 13.2745 37.5566 13.3783 37.6406 13.4822Z" fill="white"/>
<path d="M68.0277 13.3566C67.9314 13.4922 67.8051 13.6039 67.6586 13.6832C67.5121 13.7624 67.3493 13.8072 67.1827 13.8139C67.0582 13.5333 67.2668 13.3055 67.3384 13.0668C67.7336 11.6206 68.1615 10.1868 68.5584 8.75148C68.6315 8.48177 68.7358 8.26322 69.0252 8.32677C69.3909 8.40892 69.3287 8.68947 69.2446 8.96073C68.9007 10.145 68.5661 11.3199 68.2222 12.5041C68.1491 12.7537 68.0339 12.9939 68.118 13.2636V13.2605C68.0852 13.29 68.055 13.3221 68.0277 13.3566Z" fill="white"/>
<path d="M56.3197 13.8666C56.1409 14.0003 55.9204 14.0667 55.6973 14.0542C55.2055 12.422 54.7263 10.7898 54.2361 9.15759C54.205 9.05374 54.1738 8.93903 54.1412 8.83518C54.113 8.7852 54.0972 8.72923 54.0951 8.67193C54.093 8.61463 54.1047 8.55766 54.1292 8.50579C54.1537 8.45391 54.1904 8.40863 54.236 8.37371C54.2817 8.33879 54.3351 8.31526 54.3917 8.30507C54.6734 8.22137 54.7372 8.45077 54.7994 8.64763C55.2382 10.1553 55.6729 11.663 56.1034 13.1706C56.175 13.4155 56.2466 13.6372 56.3197 13.8666Z" fill="white"/>
<path d="M27.476 28.1409C27.6114 28.1409 27.6752 28.2354 27.7483 28.3176L29.2188 30.0955C29.334 30.2303 29.4382 30.376 29.3028 30.5434C29.2449 30.6165 29.1649 30.669 29.0747 30.6933C28.9844 30.7176 28.8888 30.7123 28.8018 30.6783C28.1342 30.5016 27.1523 29.1081 27.2566 28.4323C27.2514 28.3654 27.2708 28.299 27.3111 28.2454C27.3515 28.1918 27.4101 28.1546 27.476 28.1409Z" fill="white"/>
<path d="M31.0037 28.6894C30.2007 28.6584 29.418 27.4835 29.6685 26.7658C29.6913 26.6749 29.7365 26.5911 29.8001 26.522C29.8637 26.453 29.9436 26.4009 30.0326 26.3706C30.2629 26.3194 30.3563 26.5163 30.4497 26.6728C30.7329 27.1812 30.9928 27.7021 31.2744 28.2105C31.4829 28.5747 31.2962 28.6786 31.0037 28.6894Z" fill="white"/>
<path d="M44.6848 14.158C44.5805 14.3859 44.3611 14.3967 44.1619 14.4169C43.6095 13.7736 43.0556 13.1381 42.514 12.4948C42.3878 12.3562 42.2791 12.2026 42.1904 12.0376C42.1525 11.9704 42.1411 11.8916 42.1584 11.8165C42.1756 11.7415 42.2203 11.6755 42.2837 11.6314C42.3373 11.5926 42.4023 11.5726 42.4684 11.5746C42.5346 11.5766 42.5983 11.6004 42.6494 11.6423C42.7172 11.6756 42.7804 11.7173 42.8377 11.7663C43.4835 12.5258 44.1931 13.2605 44.6848 14.158Z" fill="white"/>
<path d="M22.6549 21.6414C22.5005 21.8593 22.2694 22.0115 22.0076 22.0676C21.1938 21.8491 20.4002 21.5375 19.6081 21.2461C19.3685 21.1531 19.2004 21.0384 19.3156 20.747C19.4307 20.4556 19.6268 20.4665 19.868 20.5502C20.8188 20.8834 21.768 21.1841 22.6549 21.6414Z" fill="white"/>
<path d="M101.86 22.0477C101.579 21.948 101.331 21.7713 101.146 21.5377C101.909 20.9874 102.827 20.8417 103.683 20.5193C103.762 20.4853 103.851 20.4823 103.933 20.5111C104.014 20.5398 104.081 20.5981 104.121 20.6743C104.235 20.8929 104.111 21.0277 103.944 21.1316C103.477 21.423 102.953 21.5687 102.441 21.7346C102.225 21.7981 101.985 21.8183 101.86 22.0477Z" fill="white"/>
<path d="M53.1684 24.1883C52.991 25.0935 52.8136 26.0484 52.4277 26.9536C52.3857 27.0574 52.3436 27.1814 52.1974 27.1504C52.1406 27.14 52.0891 27.1107 52.0513 27.0673C52.0134 27.024 51.9914 26.9691 51.9889 26.9117C51.9659 26.7666 51.9696 26.6185 51.9997 26.4746C52.2503 25.6748 52.521 24.875 52.7778 24.0736C52.8182 23.9496 52.8711 23.7838 53.0174 23.8039C53.1637 23.8241 53.1684 23.9915 53.1684 24.1883Z" fill="white"/>
<path d="M34.1032 15.9978C34.0844 16.2386 33.9976 16.4691 33.8527 16.6628C33.1836 16.4132 32.6078 15.9978 32.0367 15.5917C31.8702 15.477 31.6088 15.3111 31.8064 15.0507C32.004 14.7903 32.2561 14.9159 32.4646 15.0414C32.9128 15.3111 33.3516 15.6025 33.7889 15.8722C33.89 15.9227 33.9951 15.9647 34.1032 15.9978Z" fill="white"/>
<path d="M107.411 32.5151C107.21 32.4701 107.014 32.4036 106.828 32.3167C106.702 32.2492 106.606 32.1368 106.559 32.0021C106.513 31.8673 106.519 31.72 106.577 31.5897C106.681 31.2797 106.921 31.2146 107.213 31.2983C107.414 31.343 107.613 31.3984 107.808 31.4642C108.058 31.568 108.309 31.6827 108.225 32.0268C108.141 32.3709 107.943 32.5461 107.411 32.5151Z" fill="white"/>
<path d="M92.5874 18.3369C92.3384 19.3026 91.7736 19.8327 90.7092 19.687C90.4275 19.6467 90.1568 19.8327 89.8751 19.7598C89.9794 19.3754 90.3544 19.3863 90.6158 19.2406C91.2678 18.898 91.8731 18.4811 92.5874 18.3369Z" fill="white"/>
<path d="M106.096 30.3635C106.107 30.799 105.888 31.1834 105.606 31.5477C105.491 31.6934 105.355 31.7972 105.167 31.7244C105.077 31.6927 105.001 31.6309 104.951 31.5495C104.902 31.468 104.883 31.3721 104.896 31.278C104.964 30.8119 105.171 30.3771 105.491 30.0302C105.543 29.9747 105.611 29.9367 105.686 29.9217C105.761 29.9067 105.838 29.9154 105.908 29.9465C106.076 30.0194 106.126 30.1558 106.096 30.3635Z" fill="white"/>
<path d="M77.7219 24.5107C77.3671 23.7108 77.9522 21.3812 78.5467 21.0603C78.2712 22.2647 77.9942 23.3884 77.7219 24.5107Z" fill="white"/>
<path d="M104.626 29.728C104.646 30.0922 104.437 30.3108 104.04 30.348C103.748 30.379 103.362 29.9326 103.362 29.573C103.362 29.2134 103.55 29.001 103.905 28.97C104.26 28.939 104.626 29.3234 104.626 29.728Z" fill="white"/>
<path d="M19.9944 54.3441C19.7236 54.3333 19.4622 54.2496 19.5042 53.938C19.5556 53.4606 19.9835 53.4079 20.3492 53.3661C20.5779 53.3351 20.8814 53.4079 20.8394 53.7505C20.7771 54.2496 20.3601 54.2604 19.9944 54.3441Z" fill="white"/>
<path d="M103.488 54.3535C103.06 54.3643 102.554 54.0435 102.59 53.7614C102.621 53.5428 102.746 53.2964 103.018 53.3553C103.373 53.4281 103.843 53.4188 103.925 53.9179C103.978 54.2295 103.759 54.3442 103.488 54.3535Z" fill="white"/>
<path d="M105.668 54.1565C105.992 54.2293 106.4 54.2495 106.446 54.7068C106.479 54.9982 106.259 55.1439 105.979 55.1237C105.614 55.0912 105.217 55.0292 105.144 54.6138C105.074 54.3224 105.348 54.1673 105.668 54.1565Z" fill="white"/>
<path d="M105.95 38.554C105.606 38.5013 105.198 38.4501 105.126 37.9929C105.084 37.7433 105.282 37.5867 105.553 37.5774C106.02 37.5666 106.44 37.858 106.43 38.1804C106.419 38.4284 106.281 38.5431 105.95 38.554Z" fill="white"/>
<path d="M17.4798 55.1639C17.2495 55.1237 17.013 55.071 16.9896 54.8013C16.9663 54.5316 17.5109 54.1255 17.8657 54.1565C18.1474 54.1766 18.3559 54.3533 18.3045 54.6215C18.2314 55.04 17.8237 55.071 17.4798 55.1639Z" fill="white"/>
<path d="M78.7553 23.1807C78.651 24.0006 78.5467 24.7307 78.444 25.5507C77.9601 24.8222 78.1297 23.5341 78.7553 23.1807Z" fill="white"/>
<path d="M103.325 37.7511C103.085 37.6581 102.646 37.6891 102.615 37.221C102.595 36.9296 102.834 36.7839 103.116 36.8366C103.451 36.8986 103.894 36.8784 103.941 37.345C103.978 37.6906 103.706 37.7635 103.325 37.7511Z" fill="white"/>
<path d="M17.7615 37.596C18.0727 37.5852 18.3046 37.6797 18.2937 37.9913C18.2626 38.4796 17.8129 38.4563 17.4892 38.5323C17.2402 38.5943 16.9788 38.4796 16.999 38.1463C17.041 37.6704 17.4581 37.6813 17.7615 37.596Z" fill="white"/>
<path d="M20.1608 37.7511C19.7127 37.7821 19.4933 37.6674 19.5244 37.3667C19.5773 36.9187 19.9632 36.8676 20.318 36.8366C20.5685 36.8149 20.8704 36.9296 20.8393 37.1993C20.7973 37.6596 20.3694 37.7015 20.1608 37.7511Z" fill="white"/>
<path d="M90.0573 29.5839C89.8908 30.0102 89.7134 30.4768 89.536 30.9449C89.5033 31.0177 89.452 31.0797 89.368 31.0596C89.3111 31.0515 89.2592 31.0226 89.2227 30.9784C89.1861 30.9342 89.1674 30.878 89.1703 30.8209C89.1687 30.2551 89.381 29.7095 89.7648 29.2925C89.8068 29.2507 89.911 29.2088 89.9531 29.2305C90.0775 29.2925 90.0355 29.4274 90.0573 29.5839Z" fill="white"/>
<path d="M106.222 33.6373C106.222 34.0217 106.158 34.355 105.814 34.355C105.417 34.355 105.417 33.9799 105.408 33.6791C105.397 33.3459 105.553 33.0142 105.887 33.0343C106.222 33.0545 106.169 33.4497 106.222 33.6373Z" fill="white"/>
<path d="M53.7208 26.1938C53.7767 26.5325 53.7642 26.8788 53.6841 27.2126C53.6039 27.5464 53.4577 27.8608 53.254 28.1376C52.9272 27.4106 53.0424 26.9115 53.7208 26.1938Z" fill="white"/>
<path d="M104.258 33.3457C104.196 33.3256 103.914 33.4806 103.934 33.1179C103.955 32.7551 104.132 32.5459 104.498 32.566C104.697 32.5769 104.999 32.5242 104.979 32.8761C104.958 33.2279 104.75 33.4294 104.258 33.3457Z" fill="white"/>
<path d="M90.3079 31.4967C90.3593 31.2565 90.2457 30.8209 90.5678 30.8519C90.9553 30.8721 90.879 31.3293 90.9132 31.6269C90.9335 31.8036 90.9226 32.0733 90.6938 32.0625C90.3702 32.0578 90.2534 31.8083 90.3079 31.4967Z" fill="white"/>
<path d="M54.275 27.9207C54.6609 28.5128 54.4618 28.97 54.2221 29.511C53.9296 28.9499 54.0338 28.4818 54.275 27.9207Z" fill="white"/>
<path d="M102.193 33.6992C102.258 33.7969 102.317 33.8978 102.371 34.0015C102.475 34.2603 102.61 34.5208 102.308 34.7502C102.215 34.8122 102.1 34.885 102.027 34.7502C101.88 34.4789 101.765 34.1983 101.974 33.9178C102.028 33.8281 102.103 33.7531 102.193 33.6992Z" fill="white"/>
<path d="M47.1154 24.6873C47.492 24.988 47.7099 25.2902 47.7737 25.6948C47.783 25.7893 47.825 25.8932 47.7317 25.9443C47.5963 26.028 47.5325 25.8932 47.4811 25.8002C47.2726 25.4871 47.0843 25.1647 47.1154 24.6873Z" fill="white"/>
<path d="M47.6694 24.4067C47.2415 24.0533 47.1574 23.6581 47.1372 23.2117C47.6274 23.4705 47.7519 23.7201 47.6694 24.4067Z" fill="white"/>
<path d="M79.672 16.6208C79.672 16.7139 79.6813 16.7976 79.6813 16.8906C79.4215 16.9231 79.2954 17.213 79.0246 17.213C78.9828 17.1972 78.9471 17.1686 78.9228 17.1312C78.8984 17.0939 78.8867 17.0497 78.8893 17.0053C79.0791 16.7356 79.3826 16.6937 79.672 16.6208Z" fill="white"/>
<path d="M47.3658 27.2759C47.2486 27.2046 47.1525 27.1036 47.0872 26.9833C47.0219 26.863 46.9897 26.7276 46.9939 26.5908C47.3238 26.6621 47.3969 26.8915 47.3658 27.2759Z" fill="white"/>
<path d="M10.2266 25.7366C10.2577 25.7784 10.2889 25.8311 10.32 25.8714L10.2375 25.9551C10.2217 25.9463 10.2078 25.9343 10.1969 25.9199C10.1859 25.9055 10.178 25.889 10.1737 25.8714C10.1981 25.8294 10.2159 25.7839 10.2266 25.7366Z" fill="white"/>
<path d="M10.3307 25.8716C10.8209 26.4342 11.3111 27.0047 11.8121 27.5565C12.3132 28.1083 12.8563 28.6167 13.4087 29.1158C12.0533 28.3671 11.1337 27.1721 10.2467 25.9553C10.2727 25.9255 10.3008 25.8975 10.3307 25.8716Z" fill="white"/>
</svg>
